<svg width="48" height="48" viewBox="0 0 48 48" fill="none" xmlns="http://www.w3.org/2000/svg">
<rect width="48" height="48" rx="24" fill="white"/>
<path d="M23.5311 0.231922C10.6991 0.231922 0.293701 10.8987 0.293701 24.0575C0.293701 34.5842 6.95193 43.515 16.1849 46.6654C17.3462 46.886 17.7726 46.1486 17.7726 45.5193C17.7726 44.9512 17.751 43.0743 17.741 41.0835C11.2763 42.5247 9.91221 38.2724 9.91221 38.2724C8.85516 35.5185 7.33212 34.7862 7.33212 34.7862C5.22379 33.3075 7.49104 33.3379 7.49104 33.3379C9.82448 33.5059 11.0532 35.7931 11.0532 35.7931C13.1257 39.4355 16.4893 38.3825 17.8153 37.7737C18.0238 36.2338 18.6261 35.1827 19.2906 34.5878C14.1293 33.9853 8.70355 31.9424 8.70355 22.8131C8.70355 20.2119 9.6113 18.0865 11.0978 16.418C10.8565 15.8179 10.0611 13.3946 11.3229 10.1128C11.3229 10.1128 13.2742 9.47247 17.7148 12.555C19.5684 12.0271 21.5563 11.7624 23.5311 11.7533C25.5059 11.7624 27.4954 12.0271 29.3524 12.555C33.7876 9.47247 35.7363 10.1128 35.7363 10.1128C37.0011 13.3946 36.2054 15.8179 35.9641 16.418C37.454 18.0865 38.3556 20.2119 38.3556 22.8131C38.3556 31.9641 32.9195 33.979 27.7451 34.5688C28.5786 35.3082 29.3212 36.7581 29.3212 38.981C29.3212 42.1689 29.2943 44.7346 29.2943 45.5193C29.2943 46.1533 29.7126 46.8962 30.8905 46.6623C40.1184 43.5083 46.7682 34.5807 46.7682 24.0575C46.7682 10.8987 36.3643 0.231922 23.5311 0.231922Z" fill="#161514"/>
<path d="M9.16341 34.2767C9.11232 34.3939 8.93104 34.4291 8.76588 34.3486C8.59765 34.2716 8.50316 34.1119 8.5577 33.9943C8.60763 33.8736 8.78931 33.84 8.95715 33.9208C9.12577 33.9978 9.22179 34.1591 9.16341 34.2767Z" fill="#161514"/>
<path d="M10.1029 35.3424C9.99227 35.4467 9.77603 35.3983 9.62931 35.2334C9.47759 35.0689 9.44917 34.849 9.56132 34.7431C9.6754 34.6388 9.88511 34.6877 10.0372 34.8521C10.1889 35.0185 10.2185 35.2369 10.1029 35.3424Z" fill="#161514"/>
<path d="M11.0174 36.7011C10.8753 36.8015 10.6429 36.7073 10.4993 36.4976C10.3571 36.2878 10.3571 36.0362 10.5023 35.9354C10.6464 35.8346 10.8753 35.9252 11.0209 36.1335C11.1626 36.3468 11.1626 36.5983 11.0174 36.7011Z" fill="#161514"/>
<path d="M12.2703 38.0137C12.1432 38.1563 11.8724 38.118 11.6742 37.9234C11.4714 37.7332 11.4149 37.4632 11.5424 37.3207C11.6711 37.1777 11.9434 37.2179 12.1432 37.4109C12.3444 37.6007 12.4059 37.8726 12.2703 38.0137Z" fill="#161514"/>
<path d="M13.9987 38.7758C13.9426 38.9606 13.6818 39.0446 13.4191 38.9661C13.1568 38.8852 12.9851 38.6688 13.0381 38.4821C13.0926 38.2961 13.3546 38.2086 13.6192 38.2926C13.8811 38.3731 14.0532 38.5879 13.9987 38.7758Z" fill="#161514"/>
<path d="M15.8968 38.9172C15.9034 39.1118 15.6806 39.2731 15.4048 39.2766C15.1275 39.2829 14.9032 39.1255 14.9001 38.934C14.9001 38.7375 15.1179 38.5778 15.3952 38.5731C15.671 38.5676 15.8968 38.7239 15.8968 38.9172Z" fill="#161514"/>
<path d="M17.6632 38.6114C17.6963 38.8012 17.5046 38.9961 17.2308 39.0481C16.9615 39.0981 16.7122 38.9809 16.6781 38.7926C16.6446 38.5981 16.8398 38.4031 17.1086 38.3527C17.3829 38.3043 17.6283 38.4184 17.6632 38.6114Z" fill="#161514"/>
</svg>
