<svg width="17" height="16" viewBox="0 0 17 16" fill="none" xmlns="http://www.w3.org/2000/svg">
<path d="M8.06885 0C5.89408 0 5.62304 0.0105013 4.77194 0.0465058C3.91733 0.0885111 3.33926 0.221028 2.82919 0.419052C2.29536 0.620588 1.8119 0.936125 1.41252 1.34367C1.00384 1.74212 0.688123 2.22584 0.4879 2.76035C0.289875 3.27041 0.157359 3.84848 0.115353 4.70309C0.0768487 5.55469 0.0688477 5.82523 0.0688477 8C0.0688477 10.1748 0.079349 10.4458 0.115353 11.2969C0.157359 12.149 0.289875 12.7296 0.4879 13.2397C0.689435 13.7735 1.00497 14.257 1.41252 14.6563C1.81096 15.065 2.29469 15.3807 2.82919 15.5809C3.33926 15.7765 3.91983 15.9115 4.77194 15.9535C5.62354 15.992 5.89408 16 8.06885 16C10.2436 16 10.5147 15.9895 11.3658 15.9535C12.2179 15.9115 12.7984 15.776 13.3085 15.5809C13.8423 15.3794 14.3258 15.0639 14.7252 14.6563C15.1344 14.2583 15.4502 13.7745 15.6498 13.2397C15.8453 12.7296 15.9803 12.149 16.0223 11.2969C16.0608 10.4453 16.0688 10.1748 16.0688 8C16.0688 5.82523 16.0583 5.55419 16.0223 4.70309C15.9803 3.85098 15.8448 3.26741 15.6498 2.76035C15.4483 2.22651 15.1327 1.74305 14.7252 1.34367C14.3272 0.934462 13.8433 0.618667 13.3085 0.419052C12.7984 0.221028 12.2179 0.0885111 11.3658 0.0465058C10.5142 0.008001 10.2436 0 8.06885 0ZM8.06885 1.44018C10.2046 1.44018 10.4596 1.45068 11.3038 1.48669C12.0823 1.52319 12.5064 1.65321 12.7879 1.76322C13.136 1.8917 13.451 2.09619 13.7101 2.3618C13.9752 2.61974 14.1789 2.93404 14.3061 3.28141C14.4161 3.56295 14.5462 3.987 14.5827 4.7656C14.6187 5.6097 14.6292 5.86523 14.6292 8.0005C14.6292 10.1358 14.6187 10.3913 14.5797 11.2354C14.5377 12.014 14.4076 12.4381 14.2981 12.7196C14.1466 13.0951 13.9776 13.3577 13.6986 13.6417C13.4386 13.9056 13.1238 14.1092 12.7764 14.2378C12.4984 14.3478 12.0683 14.4778 11.2867 14.5143C10.4381 14.5503 10.1881 14.5608 8.04685 14.5608C5.90558 14.5608 5.65605 14.5503 4.80644 14.5113C4.02784 14.4693 3.59829 14.3393 3.31675 14.2298C2.93671 14.0783 2.67617 13.9092 2.39714 13.6302C2.1156 13.3487 1.93658 13.0806 1.79856 12.7081C1.68655 12.4301 1.55853 12 1.51703 11.2184C1.48853 10.3798 1.47502 10.1198 1.47502 7.9885C1.47502 5.85823 1.48853 5.5977 1.51703 4.74859C1.55853 3.967 1.68655 3.53794 1.79856 3.25891C1.93658 2.87836 2.1161 2.61833 2.39714 2.33679C2.67567 2.05826 2.93671 1.87823 3.31675 1.73722C3.59829 1.6277 4.01734 1.49769 4.79894 1.45868C5.64755 1.42818 5.89758 1.41718 8.03584 1.41718L8.06885 1.44018ZM8.06885 3.89399C7.52945 3.89379 6.9953 3.99989 6.49693 4.20621C5.99855 4.41254 5.54572 4.71505 5.16431 5.09646C4.7829 5.47787 4.48039 5.93071 4.27406 6.42908C4.06773 6.92746 3.96164 7.4616 3.96183 8.001C3.96164 8.5404 4.06773 9.07454 4.27406 9.57292C4.48039 10.0713 4.7829 10.5241 5.16431 10.9055C5.54572 11.2869 5.99855 11.5895 6.49693 11.7958C6.9953 12.0021 7.52945 12.1082 8.06885 12.108C8.60824 12.1082 9.14239 12.0021 9.64077 11.7958C10.1391 11.5895 10.592 11.2869 10.9734 10.9055C11.3548 10.5241 11.6573 10.0713 11.8636 9.57292C12.07 9.07454 12.1761 8.5404 12.1759 8.001C12.1761 7.4616 12.07 6.92746 11.8636 6.42908C11.6573 5.93071 11.3548 5.47787 10.9734 5.09646C10.592 4.71505 10.1391 4.41254 9.64077 4.20621C9.14239 3.99989 8.60824 3.89379 8.06885 3.89399ZM8.06885 10.6678C6.59466 10.6678 5.40201 9.47518 5.40201 8.001C5.40201 6.52682 6.59466 5.33417 8.06885 5.33417C9.54303 5.33417 10.7357 6.52682 10.7357 8.001C10.7357 9.47518 9.54303 10.6678 8.06885 10.6678ZM13.3015 3.72997C13.3012 3.98483 13.1998 4.22917 13.0195 4.40929C12.8392 4.58941 12.5947 4.69059 12.3399 4.69059C12.2139 4.69059 12.0891 4.66577 11.9727 4.61754C11.8562 4.56931 11.7504 4.49863 11.6613 4.40952C11.5722 4.32041 11.5015 4.21462 11.4533 4.0982C11.4051 3.98177 11.3803 3.85699 11.3803 3.73097C11.3803 3.60495 11.4051 3.48016 11.4533 3.36374C11.5015 3.24731 11.5722 3.14152 11.6613 3.05241C11.7504 2.9633 11.8562 2.89262 11.9727 2.84439C12.0891 2.79617 12.2139 2.77135 12.3399 2.77135C12.8684 2.77135 13.3015 3.2014 13.3015 3.72997Z" fill="#A478E8"/>
</svg>
