<svg width="48" height="48" viewBox="0 0 48 48" fill="none" xmlns="http://www.w3.org/2000/svg">
<rect width="48" height="48" rx="24" fill="url(#paint0_radial_135_296)"/>
<rect width="48" height="48" rx="24" fill="url(#paint1_radial_135_296)" fill-opacity="0.2"/>
<path d="M19.0013 24.0006C19.0013 21.2392 21.2393 19 24.0007 19C26.7622 19 29.0013 21.2392 29.0013 24.0006C29.0013 26.762 26.7622 29.0012 24.0007 29.0012C21.2393 29.0012 19.0013 26.762 19.0013 24.0006ZM16.2981 24.0006C16.2981 28.2548 19.7466 31.7032 24.0007 31.7032C28.2549 31.7032 31.7034 28.2548 31.7034 24.0006C31.7034 19.7464 28.2549 16.298 24.0007 16.298C19.7466 16.298 16.2982 19.7462 16.2982 24.0006H16.2981ZM30.2083 15.9926C30.2082 16.3486 30.3136 16.6966 30.5113 16.9927C30.709 17.2888 30.99 17.5197 31.3189 17.6561C31.6477 17.7924 32.0097 17.8282 32.3589 17.7589C32.7081 17.6896 33.0289 17.5183 33.2807 17.2666C33.5326 17.015 33.7042 16.6943 33.7737 16.3452C33.8433 15.996 33.8078 15.6341 33.6717 15.3051C33.5356 14.9761 33.305 14.6949 33.0091 14.497C32.7131 14.2991 32.3651 14.1934 32.0091 14.1932H32.0084C31.5312 14.1934 31.0736 14.3831 30.7361 14.7204C30.3986 15.0578 30.2087 15.5153 30.2083 15.9926ZM17.9405 36.2109C16.478 36.1443 15.6831 35.9006 15.1548 35.6948C14.4545 35.4222 13.9548 35.0974 13.4294 34.5728C12.904 34.0481 12.5788 33.5489 12.3073 32.8486C12.1014 32.3205 11.8578 31.5254 11.7913 30.0629C11.7186 28.4817 11.7041 28.0067 11.7041 24.0008C11.7041 19.995 11.7198 19.5213 11.7913 17.9388C11.8579 16.4763 12.1033 15.6827 12.3073 15.1531C12.58 14.4528 12.9047 13.9531 13.4294 13.4277C13.954 12.9023 14.4533 12.5771 15.1548 12.3057C15.6828 12.0997 16.478 11.8561 17.9405 11.7896C19.5217 11.7169 19.9966 11.7024 24.0007 11.7024C28.0048 11.7024 28.4803 11.7179 30.0628 11.7899C31.5253 11.8565 32.3189 12.1019 32.8484 12.3059C33.5488 12.5773 34.0485 12.9033 34.5739 13.4279C35.0992 13.9526 35.4233 14.453 35.6959 15.1534C35.9018 15.6814 36.1454 16.4765 36.2119 17.939C36.2847 19.5215 36.2992 19.9952 36.2992 24.0011C36.2992 28.007 36.2847 28.4806 36.2119 30.0631C36.1453 31.5256 35.9005 32.3205 35.6959 32.8488C35.4233 33.5491 35.0985 34.0488 34.5739 34.573C34.0492 35.0972 33.5488 35.4224 32.8484 35.6951C32.3204 35.901 31.5253 36.1446 30.0628 36.2111C28.4816 36.2838 28.0066 36.2983 24.0007 36.2983C19.9948 36.2983 19.5212 36.2838 17.9405 36.2111V36.2109ZM17.8163 9.09084C16.2194 9.16357 15.1282 9.41678 14.1752 9.78759C13.1889 10.1705 12.3528 10.6843 11.5179 11.5178C10.6831 12.3514 10.1706 13.1876 9.78771 14.1751C9.4169 15.1286 9.16369 16.2193 9.09097 17.8162C9.01704 19.4156 9.00012 19.9269 9.00012 24.0006C9.00012 28.0743 9.01704 28.5856 9.09097 30.1851C9.16369 31.7821 9.4169 32.8726 9.78771 33.8261C10.1706 34.8124 10.6832 35.6502 11.5179 36.4834C12.3527 37.3166 13.1877 37.8296 14.1752 38.2136C15.13 38.5844 16.2194 38.8376 17.8163 38.9104C19.4165 38.9831 19.927 39.0012 24.0007 39.0012C28.0744 39.0012 28.5857 38.9843 30.1852 38.9104C31.7822 38.8376 32.8727 38.5844 33.8262 38.2136C34.8126 37.8296 35.6486 37.3169 36.4835 36.4834C37.3184 35.6498 37.8297 34.8124 38.2137 33.8261C38.5845 32.8726 38.839 31.782 38.9105 30.1851C38.9832 28.5844 39.0001 28.0743 39.0001 24.0006C39.0001 19.9269 38.9832 19.4156 38.9105 17.8162C38.8378 16.2191 38.5845 15.128 38.2137 14.1751C37.8297 13.1888 37.3171 12.3527 36.4835 11.5178C35.6499 10.6829 34.8126 10.1705 33.8274 9.78759C32.8727 9.41678 31.7821 9.16237 30.1864 9.09084C28.5867 9.01776 28.0756 9 24.0025 9C19.9294 9 19.4171 9.01692 17.8169 9.09084" fill="white"/>
<defs>
<radialGradient id="paint0_radial_135_296" cx="0" cy="0" r="1" gradientUnits="userSpaceOnUse" gradientTransform="translate(3.10651 46.9485) scale(60.9422)">
<stop offset="0.09" stop-color="#FA8F21"/>
<stop offset="0.78" stop-color="#D82D7E"/>
</radialGradient>
<radialGradient id="paint1_radial_135_296" cx="0" cy="0" r="1" gradientUnits="userSpaceOnUse" gradientTransform="translate(24 46.5) scale(37.5)">
<stop offset="0.713542" stop-color="#8C3AAA" stop-opacity="0"/>
<stop offset="1" stop-color="#8C3AAA"/>
</radialGradient>
</defs>
</svg>
