<svg width="76" height="77" viewBox="0 0 76 77" fill="none" xmlns="http://www.w3.org/2000/svg">
<g filter="url(#filter0_d_135_315)">
<rect x="14" y="11" width="48" height="48" rx="24" fill="#0077B5"/>
<path d="M38.9999 44H34.9999V32H38.9999V34C39.8525 32.9153 41.1455 32.2686 42.5249 32.237C45.0055 32.2508 47.0071 34.2694 46.9999 36.75V44H42.9999V37.25C42.8399 36.1326 41.8817 35.3036 40.7529 35.306C40.2592 35.3216 39.7931 35.5378 39.4623 35.9046C39.1315 36.2715 38.9645 36.7573 38.9999 37.25V44ZM32.9999 44H28.9999V32H32.9999V44ZM30.9999 30C29.8953 30 28.9999 29.1046 28.9999 28C28.9999 26.8954 29.8953 26 30.9999 26C32.1045 26 32.9999 26.8954 32.9999 28C32.9999 28.5304 32.7892 29.0391 32.4141 29.4142C32.039 29.7893 31.5303 30 30.9999 30Z" fill="white"/>
</g>
<defs>
<filter id="filter0_d_135_315" x="0.0568619" y="0.542646" width="75.8863" height="75.8863" filterUnits="userSpaceOnUse" color-interpolation-filters="sRGB">
<feFlood flood-opacity="0" result="BackgroundImageFix"/>
<feColorMatrix in="SourceAlpha" type="matrix" values="0 0 0 0 0 0 0 0 0 0 0 0 0 0 0 0 0 0 127 0" result="hardAlpha"/>
<feOffset dy="3.48578"/>
<feGaussianBlur stdDeviation="6.97157"/>
<feColorMatrix type="matrix" values="0 0 0 0 0 0 0 0 0 0 0 0 0 0 0 0 0 0 0.06 0"/>
<feBlend mode="normal" in2="BackgroundImageFix" result="effect1_dropShadow_135_315"/>
<feBlend mode="normal" in="SourceGraphic" in2="effect1_dropShadow_135_315" result="shape"/>
</filter>
</defs>
</svg>
