<svg width="53" height="53" viewBox="0 0 53 53" fill="none" xmlns="http://www.w3.org/2000/svg">
<rect width="53" height="53" rx="8" fill="#001E36"/>
<path fill-rule="evenodd" clip-rule="evenodd" d="M10.5549 37.7767V14.8444C10.5549 14.6884 10.6212 14.5993 10.7758 14.5993C11.1512 14.5993 11.5045 14.5993 12.0124 14.577C12.2854 14.5655 12.5642 14.56 12.8518 14.5542C13.1228 14.5488 13.4016 14.5432 13.6908 14.5324C13.9992 14.5209 14.3194 14.5153 14.6514 14.5096C14.9613 14.5042 15.2815 14.4986 15.612 14.4879C16.2966 14.4656 16.9591 14.4656 17.6216 14.4656C19.4324 14.4656 20.9341 14.6884 22.1708 15.1564C23.2749 15.5353 24.2908 16.1593 25.1299 16.9839C25.8366 17.697 26.3887 18.5662 26.742 19.5245C27.0733 20.4605 27.2499 21.4188 27.2499 22.4217C27.2499 24.3382 26.8083 25.9205 25.9249 27.1686C25.0416 28.4166 23.8049 29.3526 22.3695 29.8874C20.8678 30.4446 19.2116 30.6452 17.4008 30.6452C16.8708 30.6452 16.5174 30.6452 16.2966 30.6229C16.0758 30.6006 15.7666 30.6006 15.3471 30.6006L15.347 37.7544C15.3691 37.9104 15.2587 38.0441 15.1041 38.0664H10.8199C10.6433 38.0664 10.5549 37.9772 10.5549 37.7767ZM15.3691 18.9005V26.3885L15.4354 26.3933C15.7194 26.4139 15.9844 26.4331 16.2303 26.4331H17.4008C18.262 26.4331 19.1233 26.2994 19.9403 26.032C20.647 25.8314 21.2653 25.408 21.7512 24.8508C22.2149 24.2937 22.4358 23.536 22.4358 22.5554C22.4578 21.8645 22.2812 21.1736 21.9278 20.5719C21.5524 19.9925 21.0224 19.5468 20.382 19.3016C19.5649 18.9673 18.6816 18.8336 17.7762 18.8559C17.202 18.8559 16.6941 18.8559 16.2745 18.8782C15.8328 18.8559 15.5237 18.8782 15.3691 18.9005Z" fill="#31A8FF"/>
<path d="M38.9098 24.2714C39.6606 24.4274 40.3673 24.6725 41.0298 25.0291C41.1181 25.0737 41.2285 25.0737 41.4273 25.0291C41.4935 24.9845 41.5377 24.8954 41.5377 24.8062V21.1736C41.5377 21.0845 41.5156 20.9953 41.4935 20.9062C41.4494 20.8171 41.361 20.7279 41.2727 20.7056C40.6765 20.4605 40.036 20.2822 39.3735 20.193C38.4681 20.0593 37.5406 19.9925 36.6352 19.9925C35.0673 19.9925 33.7644 20.2376 32.7265 20.7725C31.7769 21.2182 30.9598 21.9314 30.4077 22.8228C29.9219 23.6474 29.6569 24.5611 29.6569 25.5194C29.6348 26.2994 29.8115 27.0794 30.1648 27.7926C30.5844 28.5503 31.1585 29.1966 31.8431 29.6869C32.8148 30.3554 33.8527 30.8903 34.979 31.2914C36.061 31.7149 36.7898 32.0492 37.1431 32.3389C37.4965 32.6286 37.6731 32.9183 37.6731 33.2303C37.6731 33.6315 37.4302 34.0103 37.0769 34.1663C36.6794 34.3669 36.0831 34.4783 35.244 34.4783C34.3606 34.4783 33.4773 34.3669 32.6381 34.144C31.6665 33.9212 30.761 33.5646 29.8998 33.052C29.8335 33.0075 29.7673 32.9852 29.701 33.0297C29.6348 33.0743 29.6127 33.1635 29.6127 33.2303V37.1081C29.5906 37.2864 29.701 37.4424 29.8556 37.5315C30.5623 37.8658 31.3352 38.1109 32.1081 38.2447C33.1019 38.4452 34.0956 38.5344 35.1115 38.5344C36.7015 38.5344 38.0265 38.2892 39.1085 37.8212C40.1023 37.4201 40.9635 36.7292 41.5819 35.8378C42.156 34.9686 42.4652 33.9212 42.4431 32.8737C42.4652 32.0714 42.2885 31.2914 41.9352 30.5783C41.5156 29.8206 40.9194 29.1966 40.1906 28.7286C39.1306 28.06 37.9823 27.5028 36.7898 27.1017C36.2598 26.8788 35.7298 26.6337 35.2219 26.3663C34.9348 26.2103 34.6698 26.0097 34.471 25.7645C34.3385 25.5862 34.2502 25.3857 34.2502 25.1851C34.2502 24.9845 34.3165 24.7617 34.4269 24.5834C34.5815 24.3605 34.8244 24.2045 35.1115 24.1377C35.531 24.0262 35.9948 23.9594 36.4365 23.9817C37.2756 23.9817 38.0927 24.0931 38.9098 24.2714Z" fill="#31A8FF"/>
</svg>
