<svg width="76" height="77" viewBox="0 0 76 77" fill="none" xmlns="http://www.w3.org/2000/svg">
<g filter="url(#filter0_d_135_308)">
<rect x="14" y="11" width="48" height="48" rx="24" fill="#00ACEE"/>
<path d="M46.6612 29.2453C47.6323 28.6648 48.3589 27.7506 48.7054 26.6735C47.7929 27.2149 46.7945 27.5964 45.7533 27.8012C44.3099 26.2743 42.0229 25.9027 40.1703 26.8941C38.3176 27.8855 37.358 29.9944 37.8277 32.0425C34.0897 31.8548 30.6072 30.0892 28.2466 27.1848C27.0147 29.3097 27.6443 32.026 29.6853 33.3923C28.9472 33.3686 28.2256 33.1688 27.5804 32.8095C27.5804 32.829 27.5804 32.8485 27.5804 32.868C27.5808 35.0814 29.1408 36.988 31.3103 37.4267C30.6257 37.6129 29.9076 37.6403 29.2108 37.5068C29.8209 39.3997 31.5655 40.6965 33.5539 40.7352C31.9071 42.0277 29.8732 42.7287 27.7797 42.7253C27.4087 42.7258 27.0379 42.7044 26.6693 42.6613C28.7952 44.0275 31.2696 44.7526 33.7966 44.75C37.3123 44.7742 40.6909 43.3882 43.1769 40.902C45.6628 38.4159 47.0485 35.0371 47.0241 31.5214C47.0241 31.3199 47.0194 31.1195 47.01 30.9202C47.9205 30.2621 48.7063 29.447 49.3305 28.513C48.4823 28.889 47.5825 29.1358 46.6612 29.2453Z" fill="white"/>
</g>
<defs>
<filter id="filter0_d_135_308" x="0.0568619" y="0.542646" width="75.8863" height="75.8863" filterUnits="userSpaceOnUse" color-interpolation-filters="sRGB">
<feFlood flood-opacity="0" result="BackgroundImageFix"/>
<feColorMatrix in="SourceAlpha" type="matrix" values="0 0 0 0 0 0 0 0 0 0 0 0 0 0 0 0 0 0 127 0" result="hardAlpha"/>
<feOffset dy="3.48578"/>
<feGaussianBlur stdDeviation="6.97157"/>
<feColorMatrix type="matrix" values="0 0 0 0 0 0 0 0 0 0 0 0 0 0 0 0 0 0 0.06 0"/>
<feBlend mode="normal" in2="BackgroundImageFix" result="effect1_dropShadow_135_308"/>
<feBlend mode="normal" in="SourceGraphic" in2="effect1_dropShadow_135_308" result="shape"/>
</filter>
</defs>
</svg>
