<svg width="1116" height="626" viewBox="0 0 1116 626" fill="none" xmlns="http://www.w3.org/2000/svg">
<path d="M0.776245 312.83C0.776245 398.809 62.9113 476.808 163.719 533.357C264.503 589.891 403.786 624.883 557.676 624.883C711.567 624.883 850.85 589.891 951.633 533.357C1052.44 476.808 1114.58 398.809 1114.58 312.83C1114.58 226.85 1052.44 148.851 951.633 92.3028C850.85 35.7682 711.567 0.776366 557.676 0.776366C403.786 0.776366 264.503 35.7682 163.719 92.3028C62.9113 148.851 0.776245 226.85 0.776245 312.83Z" stroke="url(#paint0_linear_618_113)" stroke-width="1.55273"/>
<path d="M185.918 413.624C185.918 465.453 222.491 512.574 282.056 546.796C341.593 581.002 423.911 602.192 514.894 602.192C605.876 602.192 688.195 581.002 747.731 546.796C807.297 512.574 843.87 465.453 843.87 413.624C843.87 361.796 807.297 314.675 747.731 280.452C688.195 246.246 605.876 225.057 514.894 225.057C423.911 225.057 341.593 246.246 282.056 280.452C222.491 314.675 185.918 361.796 185.918 413.624Z" fill="url(#paint1_radial_618_113)" stroke="url(#paint2_linear_618_113)" stroke-width="2.07031"/>
<ellipse cx="169.707" cy="95.1973" rx="169.707" ry="95.1973" transform="matrix(-1 0 0 1 670.985 389.83)" fill="url(#paint3_radial_618_113)" fill-opacity="0.6"/>
<g filter="url(#filter0_d_618_113)">
<path fill-rule="evenodd" clip-rule="evenodd" d="M501.281 580.225C382.437 580.225 286.094 528.488 286.094 464.667C286.094 400.846 382.437 349.109 501.281 349.109C620.125 349.109 716.467 400.846 716.467 464.667C716.467 528.488 620.125 580.225 501.281 580.225ZM501.28 580.225C407.554 580.225 331.574 537.603 331.574 485.027C331.574 432.451 407.554 389.83 501.28 389.83C595.006 389.83 670.987 432.451 670.987 485.027C670.987 537.603 595.006 580.225 501.28 580.225Z" fill="url(#paint4_radial_618_113)" fill-opacity="0.6" shape-rendering="crispEdges"/>
</g>
<g filter="url(#filter1_d_618_113)">
<path fill-rule="evenodd" clip-rule="evenodd" d="M501.28 590.527C331.523 590.527 193.908 513.332 193.908 418.106C193.908 322.881 331.523 245.686 501.28 245.686C671.036 245.686 808.651 322.881 808.651 418.106C808.651 513.332 671.036 590.527 501.28 590.527ZM501.281 580.224C382.436 580.224 286.094 528.487 286.094 464.666C286.094 400.845 382.436 349.108 501.281 349.108C620.125 349.108 716.467 400.845 716.467 464.666C716.467 528.487 620.125 580.224 501.281 580.224Z" fill="url(#paint5_radial_618_113)" shape-rendering="crispEdges"/>
</g>
<path fill-rule="evenodd" clip-rule="evenodd" d="M500.325 575.571C423.927 575.283 362.155 540.454 362.155 497.531C362.155 454.429 424.443 419.488 501.28 419.488C578.117 419.488 640.405 454.429 640.405 497.531C640.405 540.456 578.626 575.287 502.224 575.571C562.509 575.287 611.222 547.785 611.222 513.901C611.222 479.84 561.999 452.228 501.279 452.228C440.559 452.228 391.336 479.84 391.336 513.901C391.336 547.783 440.044 575.284 500.325 575.571Z" fill="url(#paint6_radial_618_113)"/>
<path d="M269.227 454.706C269.227 490.413 295.035 522.872 337.052 546.442C379.049 570 437.111 584.591 501.279 584.591C565.447 584.591 623.508 570 665.505 546.442C707.522 522.872 733.33 490.413 733.33 454.706C733.33 418.999 707.522 386.539 665.505 362.969C623.508 339.411 565.447 324.82 501.279 324.82C437.111 324.82 379.049 339.411 337.052 362.969C295.035 386.539 269.227 418.999 269.227 454.706Z" stroke="url(#paint7_linear_618_113)" stroke-width="1.29394"/>
<rect width="2.31088" height="2.31088" transform="matrix(-0.707082 0.707131 0.707082 0.707131 768.398 451.434)" fill="#00FFF0"/>
<rect width="4.67319" height="4.67319" transform="matrix(-0.707107 0.707107 0.707107 0.707107 743.83 497.514)" fill="#00FFF0"/>
<rect x="658.312" y="500.819" width="2.1717" height="2.1717" transform="rotate(-45 658.312 500.819)" fill="#00FFF0"/>
<rect width="2.31088" height="2.31088" transform="matrix(-0.707107 0.707107 0.707107 0.707107 694.205 541.991)" fill="#00FFF0"/>
<rect width="2.31088" height="2.31088" transform="matrix(-0.707131 0.707082 0.707131 0.707082 819.357 445.952)" fill="#00FFF0"/>
<rect width="2.31088" height="2.31088" transform="matrix(-0.707131 0.707082 0.707131 0.707082 807.013 368.068)" fill="#00FFF0" fill-opacity="0.5"/>
<rect width="1.61507" height="1.61507" transform="matrix(-0.707107 0.707107 0.707107 0.707107 771.669 413.532)" fill="#00FFF0" fill-opacity="0.5"/>
<rect width="3.0132" height="3.0132" transform="matrix(-0.707107 0.707107 0.707107 0.707107 791.371 405.456)" fill="#00FFF0" fill-opacity="0.5"/>
<defs>
<filter id="filter0_d_618_113" x="283.506" y="341.346" width="445.9" height="246.643" filterUnits="userSpaceOnUse" color-interpolation-filters="sRGB">
<feFlood flood-opacity="0" result="BackgroundImageFix"/>
<feColorMatrix in="SourceAlpha" type="matrix" values="0 0 0 0 0 0 0 0 0 0 0 0 0 0 0 0 0 0 127 0" result="hardAlpha"/>
<feOffset dx="5.17577"/>
<feGaussianBlur stdDeviation="3.88183"/>
<feComposite in2="hardAlpha" operator="out"/>
<feColorMatrix type="matrix" values="0 0 0 0 0.119531 0 0 0 0 0.163828 0 0 0 0 0.5625 0 0 0 0.1 0"/>
<feBlend mode="normal" in2="BackgroundImageFix" result="effect1_dropShadow_618_113"/>
<feBlend mode="normal" in="SourceGraphic" in2="effect1_dropShadow_618_113" result="shape"/>
</filter>
<filter id="filter1_d_618_113" x="191.32" y="237.404" width="630.271" height="360.369" filterUnits="userSpaceOnUse" color-interpolation-filters="sRGB">
<feFlood flood-opacity="0" result="BackgroundImageFix"/>
<feColorMatrix in="SourceAlpha" type="matrix" values="0 0 0 0 0 0 0 0 0 0 0 0 0 0 0 0 0 0 127 0" result="hardAlpha"/>
<feOffset dx="5.17577" dy="-0.517577"/>
<feGaussianBlur stdDeviation="3.88183"/>
<feComposite in2="hardAlpha" operator="out"/>
<feColorMatrix type="matrix" values="0 0 0 0 0.119531 0 0 0 0 0.163828 0 0 0 0 0.5625 0 0 0 0.1 0"/>
<feBlend mode="normal" in2="BackgroundImageFix" result="effect1_dropShadow_618_113"/>
<feBlend mode="normal" in="SourceGraphic" in2="effect1_dropShadow_618_113" result="shape"/>
</filter>
<linearGradient id="paint0_linear_618_113" x1="762.857" y1="842.54" x2="616.44" y2="135.192" gradientUnits="userSpaceOnUse">
<stop stop-color="white"/>
<stop offset="0.508554" stop-color="#30FFFF"/>
<stop offset="1" stop-color="white" stop-opacity="0"/>
</linearGradient>
<radialGradient id="paint1_radial_618_113" cx="0" cy="0" r="1" gradientUnits="userSpaceOnUse" gradientTransform="translate(834.335 588.225) rotate(-134.315) scale(355.024 632.713)">
<stop stop-color="white"/>
<stop offset="0.462474" stop-color="#3A45AA"/>
<stop offset="1" stop-color="#3A45AA" stop-opacity="0"/>
</radialGradient>
<linearGradient id="paint2_linear_618_113" x1="682.795" y1="595.825" x2="512.705" y2="313.803" gradientUnits="userSpaceOnUse">
<stop stop-color="white"/>
<stop offset="0.442828" stop-color="#30FFFF"/>
<stop offset="1" stop-color="white" stop-opacity="0"/>
</linearGradient>
<radialGradient id="paint3_radial_618_113" cx="0" cy="0" r="1" gradientUnits="userSpaceOnUse" gradientTransform="translate(258.043 7.83675) rotate(141.315) scale(246.834 440.027)">
<stop offset="0.39201" stop-color="#1B29A4" stop-opacity="0"/>
<stop offset="0.841913" stop-color="#2938BB" stop-opacity="0.5"/>
<stop offset="1" stop-color="#172075" stop-opacity="0.5"/>
</radialGradient>
<radialGradient id="paint4_radial_618_113" cx="0" cy="0" r="1" gradientUnits="userSpaceOnUse" gradientTransform="translate(389.271 358.622) rotate(38.4293) scale(343.156 606.252)">
<stop offset="0.39201" stop-color="#6675FF" stop-opacity="0"/>
<stop offset="0.841913" stop-color="#6675FF" stop-opacity="0.5"/>
<stop offset="1" stop-color="#192059" stop-opacity="0"/>
</radialGradient>
<radialGradient id="paint5_radial_618_113" cx="0" cy="0" r="1" gradientUnits="userSpaceOnUse" gradientTransform="translate(341.285 259.879) rotate(39.6517) scale(498.718 889.055)">
<stop offset="0.39201" stop-color="#6675FF" stop-opacity="0"/>
<stop offset="0.841913" stop-color="#6675FF" stop-opacity="0.5"/>
<stop offset="1" stop-color="#DBDEFF" stop-opacity="0"/>
</radialGradient>
<radialGradient id="paint6_radial_618_113" cx="0" cy="0" r="1" gradientUnits="userSpaceOnUse" gradientTransform="translate(428.862 425.912) rotate(38.6845) scale(202.354 360.732)">
<stop offset="0.39201" stop-color="#17217A" stop-opacity="0"/>
<stop offset="0.841913" stop-color="#1A2374" stop-opacity="0.5"/>
<stop offset="1" stop-color="#151E6C" stop-opacity="0.5"/>
</radialGradient>
<linearGradient id="paint7_linear_618_113" x1="619.669" y1="580.142" x2="522.084" y2="319.854" gradientUnits="userSpaceOnUse">
<stop stop-color="white"/>
<stop offset="0.508554" stop-color="#30FFFF"/>
<stop offset="1" stop-color="white" stop-opacity="0"/>
</linearGradient>
</defs>
</svg>
