<svg width="19" height="18" viewBox="0 0 19 18" fill="none" xmlns="http://www.w3.org/2000/svg">
<path d="M9.50008 0C4.25402 0 0 4.13136 0 9.22785C0 13.305 2.72206 16.764 6.49673 17.9841C6.97152 18.0696 7.14583 17.784 7.14583 17.5402C7.14583 17.3202 7.13702 16.5933 7.13293 15.8222C4.48999 16.3804 3.9323 14.7334 3.9323 14.7334C3.50015 13.6668 2.87749 13.3832 2.87749 13.3832C2.01555 12.8105 2.94246 12.8222 2.94246 12.8222C3.89644 12.8873 4.39875 13.7732 4.39875 13.7732C5.24606 15.1839 6.62117 14.7761 7.16329 14.5403C7.24855 13.9439 7.49476 13.5368 7.76644 13.3063C5.65635 13.073 3.43817 12.2818 3.43817 8.74589C3.43817 7.73842 3.80928 6.91524 4.417 6.26901C4.31836 6.03658 3.99319 5.09803 4.50903 3.82696C4.50903 3.82696 5.30679 3.57895 7.12223 4.77285C7.88002 4.56839 8.69273 4.46585 9.50008 4.46234C10.3074 4.46585 11.1208 4.56839 11.88 4.77285C13.6932 3.57895 14.4899 3.82696 14.4899 3.82696C15.007 5.09803 14.6816 6.03658 14.583 6.26901C15.1921 6.91524 15.5607 7.73842 15.5607 8.74589C15.5607 12.2902 13.3383 13.0706 11.2229 13.299C11.5636 13.5854 11.8672 14.1469 11.8672 15.0079C11.8672 16.2426 11.8562 17.2363 11.8562 17.5402C11.8562 17.7858 12.0272 18.0735 12.5088 17.9829C16.2814 16.7614 19 13.3036 19 9.22785C19 4.13136 14.7466 0 9.50008 0" fill="#43F8C1"/>
</svg>
