<svg width="48" height="48" viewBox="0 0 48 48" fill="none" xmlns="http://www.w3.org/2000/svg">
<rect width="48" height="48" rx="10" fill="#0D0D0D"/>
<path d="M10.0663 14.6269V9H15.1337V14.6269H10.0663Z" fill="#F2F2F2"/>
<path d="M35.3254 32.114V26.487H40.3927V32.114H35.3254Z" fill="#F2F2F2"/>
<path d="M10.0663 39V16.5544H15.1337V37.6943L10.0663 39Z" fill="#0ABF04"/>
<path d="M17.8383 32.0052V16.5544H22.657V17.8912C23.7554 16.7928 25.1648 16.2435 26.885 16.2435C28.5637 16.2435 29.9627 16.7928 31.0819 17.8912C32.2218 18.9689 32.7917 20.399 32.7917 22.1814V32.0052H27.7244V23.2694C27.7244 22.4404 27.4964 21.8083 27.0404 21.3731C26.5845 20.9378 26.0352 20.7202 25.3928 20.7202C24.6881 20.7202 24.0974 20.9586 23.6207 21.4352C23.144 21.8912 22.9057 22.5026 22.9057 23.2694V32.0052H17.8383Z" fill="#0ABF04"/>
</svg>
