<svg width="28" height="27" viewBox="0 0 28 27" fill="none" xmlns="http://www.w3.org/2000/svg">
<path d="M14.0724 0C6.61745 0 0.572266 6.19703 0.572266 13.8418C0.572266 19.9574 4.44046 25.1459 9.80447 26.9762C10.4792 27.1043 10.7269 26.6759 10.7269 26.3103C10.7269 25.9803 10.7143 24.8899 10.7085 23.7333C6.95278 24.5706 6.16028 22.1001 6.16028 22.1001C5.54617 20.5002 4.66133 20.0748 4.66133 20.0748C3.43647 19.2157 4.75366 19.2334 4.75366 19.2334C6.10931 19.331 6.82312 20.6598 6.82312 20.6598C8.02719 22.7759 9.9813 22.1641 10.7517 21.8104C10.8728 20.9158 11.2227 20.3052 11.6088 19.9595C8.61023 19.6095 5.45809 18.4226 5.45809 13.1188C5.45809 11.6076 5.98546 10.3729 6.84905 9.40351C6.70888 9.05487 6.24679 7.64704 6.97983 5.74044C6.97983 5.74044 8.11349 5.36842 10.6933 7.15927C11.7702 6.85259 12.9251 6.69878 14.0724 6.69351C15.2197 6.69878 16.3755 6.85259 17.4543 7.15927C20.031 5.36842 21.1631 5.74044 21.1631 5.74044C21.898 7.64704 21.4356 9.05487 21.2955 9.40351C22.1611 10.3729 22.6849 11.6076 22.6849 13.1188C22.6849 18.4352 19.5267 19.6058 16.5205 19.9485C17.0048 20.3781 17.4362 21.2204 17.4362 22.5118C17.4362 24.3639 17.4206 25.8544 17.4206 26.3103C17.4206 26.6787 17.6636 27.1103 18.3479 26.9744C23.709 25.142 27.5723 19.9554 27.5723 13.8418C27.5723 6.19703 21.528 0 14.0724 0Z" fill="#0ABF04"/>
<path d="M5.72526 19.7788C5.69558 19.8469 5.59026 19.8673 5.49431 19.8205C5.39657 19.7758 5.34168 19.683 5.37337 19.6147C5.40237 19.5446 5.50792 19.525 5.60543 19.572C5.70339 19.6167 5.75918 19.7105 5.72526 19.7788Z" fill="#0ABF04"/>
<path d="M6.27106 20.3979C6.2068 20.4585 6.08117 20.4304 5.99593 20.3346C5.90779 20.239 5.89127 20.1113 5.95643 20.0498C6.0227 19.9892 6.14454 20.0175 6.2329 20.1131C6.32104 20.2098 6.33823 20.3366 6.27106 20.3979Z" fill="#0ABF04"/>
<path d="M6.80236 21.1873C6.7198 21.2456 6.5848 21.1909 6.50134 21.069C6.41878 20.9471 6.41878 20.801 6.50313 20.7424C6.5868 20.6839 6.7198 20.7365 6.80437 20.8575C6.8867 20.9814 6.8867 21.1276 6.80236 21.1873Z" fill="#0ABF04"/>
<path d="M7.53024 21.9498C7.45638 22.0327 7.29907 22.0104 7.18393 21.8974C7.06611 21.7869 7.03331 21.63 7.10739 21.5472C7.18214 21.4641 7.34035 21.4875 7.45638 21.5996C7.57331 21.7099 7.60901 21.8679 7.53024 21.9498Z" fill="#0ABF04"/>
<path d="M8.53437 22.3926C8.5018 22.5 8.35028 22.5488 8.19766 22.5031C8.04525 22.4562 7.94551 22.3304 7.9763 22.2219C8.00799 22.1139 8.16017 22.0631 8.31391 22.1119C8.46609 22.1586 8.56606 22.2834 8.53437 22.3926Z" fill="#0ABF04"/>
<path d="M9.63713 22.4748C9.64093 22.5878 9.51151 22.6815 9.35129 22.6836C9.19018 22.6872 9.05987 22.5957 9.05808 22.4845C9.05808 22.3704 9.18461 22.2775 9.34571 22.2748C9.50593 22.2716 9.63713 22.3624 9.63713 22.4748Z" fill="#0ABF04"/>
<path d="M10.6634 22.2971C10.6825 22.4074 10.5712 22.5206 10.4121 22.5508C10.2557 22.5798 10.1109 22.5118 10.091 22.4024C10.0716 22.2893 10.1849 22.1761 10.3411 22.1468C10.5005 22.1187 10.6431 22.1849 10.6634 22.2971Z" fill="#0ABF04"/>
</svg>
