<svg width="18" height="19" viewBox="0 0 18 19" fill="none" xmlns="http://www.w3.org/2000/svg">
<path d="M5.95377 9.49997C5.95377 7.89568 7.25395 6.5948 8.85824 6.5948C10.4625 6.5948 11.7634 7.89568 11.7634 9.49997C11.7634 11.1043 10.4625 12.4051 8.85824 12.4051C7.25395 12.4051 5.95377 11.1043 5.95377 9.49997ZM4.38329 9.49997C4.38329 11.9715 6.38672 13.9749 8.85824 13.9749C11.3298 13.9749 13.3332 11.9715 13.3332 9.49997C13.3332 7.02845 11.3298 5.02502 8.85824 5.02502C6.38672 5.02502 4.38336 7.02831 4.38336 9.49997H4.38329ZM12.4646 4.84758C12.4646 5.05442 12.5258 5.25663 12.6407 5.42866C12.7555 5.60068 12.9188 5.73479 13.1098 5.81401C13.3009 5.89324 13.5112 5.91404 13.714 5.87377C13.9169 5.8335 14.1033 5.73397 14.2496 5.58777C14.3959 5.44158 14.4956 5.25528 14.536 5.05243C14.5765 4.84959 14.5558 4.63931 14.4767 4.44819C14.3977 4.25706 14.2637 4.09368 14.0918 3.9787C13.9198 3.86372 13.7177 3.80231 13.5108 3.80222H13.5104C13.2332 3.80235 12.9673 3.91252 12.7712 4.10852C12.5752 4.30452 12.4649 4.57034 12.4646 4.84758ZM5.33746 16.5937C4.4878 16.555 4.02599 16.4135 3.71908 16.2939C3.31221 16.1355 3.0219 15.9468 2.71667 15.642C2.41144 15.3372 2.22251 15.0472 2.0648 14.6403C1.94517 14.3336 1.80364 13.8716 1.76501 13.0219C1.72277 12.1033 1.71433 11.8274 1.71433 9.50011C1.71433 7.17283 1.72346 6.89766 1.76501 5.97828C1.80371 5.12862 1.94628 4.66757 2.0648 4.3599C2.2232 3.95303 2.41186 3.66272 2.71667 3.35749C3.02148 3.05226 3.31151 2.86333 3.71908 2.70562C4.02585 2.58598 4.4878 2.44446 5.33746 2.40583C6.25607 2.36358 6.53202 2.35515 8.85824 2.35515C11.1845 2.35515 11.4607 2.36414 12.3801 2.40597C13.2297 2.44467 13.6908 2.58724 13.9984 2.70576C14.4053 2.86346 14.6956 3.05282 15.0009 3.35763C15.3061 3.66244 15.4943 3.95316 15.6527 4.36004C15.7724 4.6668 15.9139 5.12876 15.9525 5.97842C15.9948 6.8978 16.0032 7.17297 16.0032 9.50025C16.0032 11.8275 15.9948 12.1027 15.9525 13.0221C15.9138 13.8717 15.7716 14.3336 15.6527 14.6405C15.4943 15.0473 15.3057 15.3376 15.0009 15.6422C14.696 15.9467 14.4053 16.1356 13.9984 16.294C13.6917 16.4137 13.2297 16.5552 12.3801 16.5938C11.4615 16.6361 11.1855 16.6445 8.85824 16.6445C6.53097 16.6445 6.25579 16.6361 5.33746 16.5938V16.5937ZM5.2653 0.837933C4.33756 0.880183 3.70361 1.02729 3.14997 1.24272C2.57696 1.46519 2.09123 1.76366 1.6062 2.24792C1.12116 2.73218 0.823467 3.21798 0.600995 3.7917C0.385565 4.34568 0.238459 4.97928 0.19621 5.90703C0.153263 6.83623 0.143433 7.1333 0.143433 9.49997C0.143433 11.8666 0.153263 12.1637 0.19621 13.0929C0.238459 14.0207 0.385565 14.6543 0.600995 15.2082C0.823467 15.7813 1.12123 16.268 1.6062 16.752C2.09116 17.2361 2.57626 17.5341 3.14997 17.7572C3.70465 17.9726 4.33756 18.1198 5.2653 18.162C6.195 18.2043 6.49158 18.2148 8.85824 18.2148C11.2249 18.2148 11.522 18.205 12.4512 18.162C13.379 18.1198 14.0125 17.9726 14.5665 17.7572C15.1395 17.5341 15.6253 17.2363 16.1103 16.752C16.5953 16.2678 16.8924 15.7813 17.1155 15.2082C17.3309 14.6543 17.4787 14.0207 17.5203 13.0929C17.5625 12.163 17.5724 11.8666 17.5724 9.49997C17.5724 7.1333 17.5625 6.83623 17.5203 5.90703C17.478 4.97921 17.3309 4.34533 17.1155 3.7917C16.8924 3.21868 16.5946 2.73295 16.1103 2.24792C15.626 1.76289 15.1395 1.46519 14.5672 1.24272C14.0125 1.02729 13.3789 0.879485 12.4519 0.837933C11.5225 0.795475 11.2256 0.785156 8.85929 0.785156C6.49297 0.785156 6.19535 0.794987 5.26565 0.837933" fill="#0ABF04"/>
</svg>
