<svg width="14" height="15" viewBox="0 0 14 15" fill="none" xmlns="http://www.w3.org/2000/svg">
<path d="M8.02511 14.0359H5.12029V5.3214H8.02511V6.77381C8.6443 5.98607 9.58328 5.51644 10.585 5.49351C12.3864 5.50351 13.84 6.96944 13.8348 8.77088V14.0359H10.9299V9.13398C10.8138 8.32254 10.1179 7.72048 9.29815 7.72224C8.93961 7.73357 8.60117 7.89055 8.36094 8.15696C8.12071 8.42336 7.99944 8.77618 8.02511 9.13398V14.0359ZM3.66788 14.0359H0.763062V5.3214H3.66788V14.0359ZM2.21547 3.86899C1.41333 3.86899 0.763062 3.21873 0.763062 2.41658C0.763062 1.61444 1.41333 0.964172 2.21547 0.964172C3.01762 0.964172 3.66788 1.61444 3.66788 2.41658C3.66788 2.80179 3.51486 3.17121 3.24248 3.44359C2.9701 3.71597 2.60067 3.86899 2.21547 3.86899Z" fill="#0ABF04"/>
</svg>
