<svg width="13" height="13" viewBox="0 0 13 13" fill="none" xmlns="http://www.w3.org/2000/svg">
<path d="M11.4154 12.3096C5.21972 12.3184 0.517549 7.5599 0.524177 1.4184C0.524177 1.01732 0.84931 0.690369 1.25038 0.690369H3.1671C3.52698 0.690369 3.83271 0.954801 3.88556 1.31079C4.01221 2.16398 4.26062 2.99459 4.62322 3.77725L4.69785 3.93832C4.80161 4.16229 4.73128 4.42839 4.53041 4.57184C3.93683 4.99574 3.70998 5.84901 4.1724 6.51479C4.7527 7.35028 5.48419 8.08161 6.31948 8.66165C6.98523 9.12394 7.83836 8.89712 8.26225 8.30365C8.4058 8.10267 8.67205 8.0323 8.89615 8.13611L9.05649 8.21038C9.83919 8.57296 10.6699 8.82138 11.5231 8.94801C11.8791 9.00085 12.1435 9.30656 12.1435 9.66646V11.5834C12.1435 11.9845 11.8175 12.3096 11.4165 12.3096L11.4154 12.3096Z" fill="#0ABF04"/>
</svg>
