<svg width="16" height="13" viewBox="0 0 16 13" fill="none" xmlns="http://www.w3.org/2000/svg">
<path d="M13.9737 2.27597C14.6246 1.88679 15.1117 1.27398 15.344 0.55196C14.7323 0.914919 14.063 1.1706 13.3651 1.30794C12.3975 0.284373 10.8644 0.0352837 9.62252 0.699856C8.38063 1.36443 7.73737 2.77813 8.05218 4.15103C5.54649 4.02523 3.212 2.84162 1.62962 0.894729C0.803809 2.31912 1.22582 4.13998 2.59402 5.05588C2.09926 5.03998 1.61548 4.90602 1.183 4.66518C1.183 4.67826 1.183 4.69133 1.183 4.7044C1.18329 6.18815 2.22901 7.46622 3.68333 7.76027C3.22441 7.88513 2.74304 7.90351 2.27594 7.81401C2.68494 9.08289 3.85439 9.95217 5.1873 9.9781C4.08334 10.8446 2.72 11.3144 1.31663 11.3121C1.06788 11.3125 0.819328 11.2982 0.572266 11.2693C1.99736 12.1851 3.656 12.6711 5.34997 12.6694C7.70669 12.6856 9.97156 11.7565 11.638 10.09C13.3044 8.42339 14.2333 6.15844 14.2169 3.80173C14.2169 3.66665 14.2138 3.53231 14.2075 3.39868C14.8178 2.95759 15.3446 2.41115 15.763 1.78506C15.1944 2.03709 14.5913 2.20257 13.9737 2.27597Z" fill="#0ABF04"/>
</svg>
