<svg width="48" height="48" viewBox="0 0 48 48" fill="none" xmlns="http://www.w3.org/2000/svg">
<path d="M19.1524 0.472043C9.83347 2.29082 2.32391 9.78157 0.486367 19.0723C-2.98247 36.6039 12.8335 49.6728 24.7494 47.8259C28.612 47.2259 30.5058 42.7071 28.7339 39.2289C26.5682 34.9726 29.6621 30.0038 34.4434 30.0038H41.9155C45.2718 30.0038 47.9906 27.2287 48 23.8818C47.9531 9.10655 34.5091 -2.51863 19.1524 0.472043ZM8.99907 30.0038C7.33966 30.0038 5.999 28.6631 5.999 27.0037C5.999 25.3443 7.33966 24.0037 8.99907 24.0037C10.6585 24.0037 11.9991 25.3443 11.9991 27.0037C11.9991 28.6631 10.6585 30.0038 8.99907 30.0038ZM11.9991 18.0036C10.3397 18.0036 8.99907 16.6629 8.99907 15.0035C8.99907 13.3441 10.3397 12.0035 11.9991 12.0035C13.6586 12.0035 14.9992 13.3441 14.9992 15.0035C14.9992 16.6629 13.6586 18.0036 11.9991 18.0036ZM23.9994 12.0035C22.34 12.0035 20.9994 10.6628 20.9994 9.00343C20.9994 7.34403 22.34 6.00338 23.9994 6.00338C25.6588 6.00338 26.9995 7.34403 26.9995 9.00343C26.9995 10.6628 25.6588 12.0035 23.9994 12.0035ZM35.9997 18.0036C34.3403 18.0036 32.9996 16.6629 32.9996 15.0035C32.9996 13.3441 34.3403 12.0035 35.9997 12.0035C37.6591 12.0035 38.9998 13.3441 38.9998 15.0035C38.9998 16.6629 37.6591 18.0036 35.9997 18.0036Z" fill="url(#paint0_linear_125_70)"/>
<defs>
<linearGradient id="paint0_linear_125_70" x1="0" y1="0" x2="48" y2="0" gradientUnits="userSpaceOnUse">
<stop stop-color="#A478E8"/>
<stop offset="1" stop-color="#516CF7"/>
</linearGradient>
</defs>
</svg>
