<svg width="24" height="22" viewBox="0 0 24 22" fill="none" xmlns="http://www.w3.org/2000/svg">
<path fill-rule="evenodd" clip-rule="evenodd" d="M6.09394 21.2124C2.69511 19.1444 0.424316 15.4052 0.424316 11.1352C0.424316 8.73228 1.14305 6.49746 2.37831 4.63391C2.67055 6.98768 3.67252 9.26967 5.38421 11.1347L5.38339 11.1352L5.39895 11.1506C5.50946 11.2709 5.62243 11.39 5.73949 11.5067C5.85655 11.6235 5.97524 11.7364 6.09558 11.8472L10.0003 15.7518C10.6331 16.385 10.9523 17.1555 10.9523 18.0509V18.3849C10.9523 19.5984 10.3392 20.6398 9.27829 21.2284C8.25586 21.7954 7.09836 21.7874 6.09394 21.2124Z" fill="#43F8C1"/>
<path fill-rule="evenodd" clip-rule="evenodd" d="M5.38431 11.1346C3.67262 9.26964 2.67066 6.98765 2.37842 4.63388C3.337 3.18603 4.60829 1.9623 6.09404 1.05807C7.09765 0.482927 8.25597 0.475069 9.2784 1.04195C10.3393 1.6306 10.9524 2.67195 10.9524 3.88552V4.21951C10.9524 5.1142 10.634 5.88424 10.002 6.51714L5.38431 11.1346Z" fill="#5EB4DA"/>
<path fill-rule="evenodd" clip-rule="evenodd" d="M18.3301 1.05797C21.7289 3.126 23.9997 6.8652 23.9997 11.1352C23.9997 13.5381 23.281 15.7729 22.0457 17.6364C21.7535 15.2827 20.7507 13.0007 19.0398 11.1357L19.0406 11.1351L19.0251 11.1198C18.9145 10.9994 18.8008 10.8804 18.6845 10.7637C18.5675 10.6469 18.4488 10.534 18.3284 10.4231L14.4237 6.51855C13.7909 5.88538 13.4717 5.11486 13.4717 4.21949V3.8855C13.4717 2.67192 14.0848 1.63058 15.1457 1.04193C16.1681 0.475048 17.3256 0.482988 18.3301 1.05797Z" fill="#4F54D2"/>
<path fill-rule="evenodd" clip-rule="evenodd" d="M19.0398 11.1357C20.7507 13.0007 21.7535 15.2827 22.0457 17.6365C21.0863 19.0843 19.8158 20.3081 18.3301 21.2123C17.3265 21.7874 16.1681 21.7953 15.1457 21.2284C14.0848 20.6397 13.4717 19.5984 13.4717 18.3849V18.0509C13.4717 17.1562 13.7901 16.3861 14.4221 15.7532L19.0398 11.1357Z" fill="#6B91E6"/>
</svg>
