<svg width="48" height="48" viewBox="0 0 48 48" fill="none" xmlns="http://www.w3.org/2000/svg">
<rect width="48" height="48" rx="8" fill="#E2E6EE"/>
<g clip-path="url(#clip0_106_521)">
<path d="M40 23.5853C40 21.4653 37.3453 19.456 33.2747 18.2107C34.2147 14.0627 33.7973 10.7613 31.9573 9.704C31.5115 9.45429 31.0069 9.3286 30.496 9.34V10.7933C30.796 10.7933 31.0373 10.8533 31.24 10.964C32.1267 11.4733 32.512 13.4093 32.212 15.9013C32.14 16.5147 32.0227 17.16 31.8787 17.8187C30.5155 17.4902 29.132 17.2528 27.7373 17.108C26.9065 15.9617 26 14.8722 25.024 13.8467C27.1507 11.8707 29.1387 10.7933 30.496 10.7933V9.34C28.7013 9.34 26.3613 10.612 23.9867 12.8293C21.6133 10.6267 19.264 9.36 17.4707 9.36V10.8133C18.8213 10.8133 20.824 11.8907 22.9507 13.8533C22.0373 14.8133 21.124 15.9013 20.256 17.108C18.8584 17.2512 17.4725 17.4908 16.108 17.8253C15.9638 17.2011 15.8503 16.5701 15.768 15.9347C15.4613 13.4413 15.84 11.5053 16.7213 10.9907C16.916 10.8733 17.1707 10.8133 17.4707 10.8133V9.36C16.924 9.36 16.4267 9.484 15.9973 9.73067C14.164 10.788 13.7533 14.0813 14.6987 18.2173C10.6413 19.4707 8 21.472 8 23.5853C8 25.7053 10.6547 27.7147 14.7253 28.9587C13.7853 33.108 14.2027 36.4093 16.0427 37.4653C16.4667 37.7133 16.9627 37.8307 17.5093 37.8307C19.304 37.8307 21.652 36.552 24.0267 34.3347C26.4 36.5387 28.748 37.804 30.5427 37.804C31.0575 37.8149 31.5659 37.6888 32.016 37.4387C33.8493 36.3827 34.26 33.0893 33.3147 28.9533C37.3587 27.708 40 25.6987 40 23.5853ZM31.5067 19.2347C31.2533 20.1065 30.9597 20.9661 30.6267 21.8107C30.0816 20.7503 29.483 19.7183 28.8333 18.7187C29.76 18.856 30.652 19.0253 31.5067 19.2347ZM28.52 26.1813C28.0316 27.034 27.5072 27.8654 26.948 28.6733C24.991 28.8458 23.0227 28.8481 21.0653 28.68C19.9426 27.0762 18.9607 25.3784 18.1307 23.6053C18.9594 21.8281 19.9372 20.1243 21.0533 18.512C23.0099 18.3392 24.9777 18.3365 26.9347 18.504C27.476 19.28 28.0053 20.1093 28.5133 20.984C29.0093 21.8373 29.46 22.704 29.8707 23.5787C29.4554 24.4639 29.0049 25.3322 28.52 26.1813ZM30.6267 25.3333C30.9787 26.2067 31.28 27.0813 31.5267 27.9293C30.6733 28.1387 29.772 28.3147 28.84 28.4507C29.487 27.4419 30.0833 26.4015 30.6267 25.3333ZM24.0133 32.2933C23.4067 31.6667 22.8 30.9693 22.2 30.2053C22.7867 30.232 23.3867 30.252 23.9933 30.252C24.6067 30.252 25.2133 30.2387 25.8067 30.2053C25.22 30.9693 24.6133 31.6667 24.0133 32.2933ZM19.16 28.4507C18.261 28.3204 17.3685 28.1487 16.4853 27.936C16.7267 27.0947 17.0267 26.2267 17.3653 25.36C17.6333 25.88 17.9147 26.4027 18.2213 26.9253C18.528 27.4467 18.84 27.956 19.16 28.4507ZM23.98 14.8773C24.5867 15.504 25.1933 16.2013 25.7933 16.9653C25.2067 16.9387 24.6067 16.9187 24 16.9187C23.3867 16.9187 22.78 16.932 22.1867 16.9653C22.7733 16.2013 23.38 15.504 23.98 14.8773ZM19.1533 18.72C18.5065 19.7266 17.9102 20.7648 17.3667 21.8307C17.0243 20.9806 16.7239 20.1142 16.4667 19.2347C17.32 19.032 18.2213 18.856 19.1533 18.72ZM13.2507 26.8853C10.9413 25.9013 9.448 24.6093 9.448 23.5853C9.448 22.5613 10.9413 21.2627 13.2507 20.2853C13.8107 20.044 14.424 19.828 15.0573 19.6267C15.4293 20.904 15.9187 22.2347 16.524 23.5987C15.9525 24.8816 15.4691 26.202 15.0773 27.5507C14.4579 27.3589 13.8483 27.1368 13.2507 26.8853ZM16.76 36.2053C15.8733 35.6987 15.488 33.76 15.788 31.2693C15.86 30.656 15.9773 30.0093 16.1213 29.3507C17.3987 29.664 18.7947 29.9053 20.2627 30.0627C21.0936 31.2089 22 32.2984 22.976 33.324C20.8493 35.3 18.8533 36.3827 17.496 36.3827C17.2399 36.3855 16.9871 36.3237 16.76 36.2053ZM32.232 31.236C32.5387 33.728 32.16 35.6653 31.2787 36.18C31.084 36.2973 30.8293 36.3493 30.5293 36.3493C29.1787 36.3493 27.176 35.2733 25.0493 33.3093C26.0212 32.2881 26.9216 31.2011 27.744 30.056C29.1416 29.9128 30.5275 29.6732 31.892 29.3387C32.0427 29.9973 32.1587 30.6293 32.232 31.236ZM34.7427 26.8853C34.1827 27.1267 33.5693 27.3427 32.936 27.544C32.5373 26.1884 32.0473 24.8614 31.4693 23.572C32.0693 22.216 32.5507 20.892 32.916 19.62C33.5374 19.8124 34.1492 20.0345 34.7493 20.2853C37.0587 21.2693 38.552 22.5613 38.552 23.5853C38.5453 24.6093 37.052 25.908 34.7427 26.8853Z" fill="#61DAFB"/>
<path d="M23.9933 26.5667C24.784 26.5667 25.5423 26.2526 26.1015 25.6935C26.6606 25.1343 26.9747 24.376 26.9747 23.5853C26.9747 22.7946 26.6606 22.0363 26.1015 21.4772C25.5423 20.9181 24.784 20.604 23.9933 20.604C23.2026 20.604 22.4443 20.9181 21.8852 21.4772C21.3261 22.0363 21.012 22.7946 21.012 23.5853C21.012 24.376 21.3261 25.1343 21.8852 25.6935C22.4443 26.2526 23.2026 26.5667 23.9933 26.5667Z" fill="#61DAFB"/>
<path fill-rule="evenodd" clip-rule="evenodd" d="M8 23.5853C8 21.472 10.6413 19.4707 14.6987 18.2173C13.7533 14.0813 14.164 10.788 15.9973 9.73067C16.4267 9.484 16.924 9.36 17.4707 9.36C19.264 9.36 21.6133 10.6267 23.9867 12.8293C26.3613 10.612 28.7013 9.34 30.496 9.34C31.0069 9.3286 31.5115 9.45429 31.9573 9.704C33.7973 10.7613 34.2147 14.0627 33.2747 18.2107C37.3453 19.456 40 21.4653 40 23.5853C40 25.6987 37.3587 27.708 33.3147 28.9533C34.26 33.0893 33.8493 36.3827 32.016 37.4387C31.5659 37.6888 31.0575 37.8149 30.5427 37.804C28.748 37.804 26.4 36.5387 24.0267 34.3347C21.652 36.552 19.304 37.8307 17.5093 37.8307C16.9627 37.8307 16.4667 37.7133 16.0427 37.4653C14.2027 36.4093 13.7853 33.108 14.7253 28.9587C10.6547 27.7147 8 25.7053 8 23.5853ZM31.24 10.964C31.0373 10.8533 30.796 10.7933 30.496 10.7933C29.1387 10.7933 27.1507 11.8707 25.024 13.8467C26 14.8722 26.9065 15.9617 27.7373 17.108C29.132 17.2528 30.5155 17.4902 31.8787 17.8187C32.0227 17.16 32.14 16.5147 32.212 15.9013C32.512 13.4093 32.1267 11.4733 31.24 10.964ZM17.4707 10.8133C18.8213 10.8133 20.824 11.8907 22.9507 13.8533C22.0373 14.8133 21.124 15.9013 20.256 17.108C18.8584 17.2512 17.4725 17.4908 16.108 17.8253C15.9638 17.2011 15.8503 16.5701 15.768 15.9347C15.4613 13.4413 15.84 11.5053 16.7213 10.9907C16.916 10.8733 17.1707 10.8133 17.4707 10.8133ZM13.2507 26.8853C10.9413 25.9013 9.448 24.6093 9.448 23.5853C9.448 22.5613 10.9413 21.2627 13.2507 20.2853C13.8107 20.044 14.424 19.828 15.0573 19.6267C15.4293 20.904 15.9187 22.2347 16.524 23.5987C15.9525 24.8816 15.4691 26.202 15.0773 27.5507C14.4579 27.3589 13.8483 27.1368 13.2507 26.8853ZM17.3667 21.8307C17.9102 20.7648 18.5065 19.7266 19.1533 18.72C18.2213 18.856 17.32 19.032 16.4667 19.2347C16.7239 20.1142 17.0243 20.9806 17.3667 21.8307ZM28.52 26.1813C28.0316 27.034 27.5072 27.8654 26.948 28.6733C24.991 28.8458 23.0227 28.8481 21.0653 28.68C19.9426 27.0762 18.9607 25.3784 18.1307 23.6053C18.9594 21.8281 19.9372 20.1243 21.0533 18.512C23.0099 18.3392 24.9777 18.3365 26.9347 18.504C27.476 19.28 28.0053 20.1093 28.5133 20.984C29.0093 21.8373 29.46 22.704 29.8707 23.5787C29.4554 24.4639 29.0049 25.3322 28.52 26.1813ZM26.1015 25.6935C25.5423 26.2526 24.784 26.5667 23.9933 26.5667C23.2026 26.5667 22.4443 26.2526 21.8852 25.6935C21.3261 25.1343 21.012 24.376 21.012 23.5853C21.012 22.7946 21.3261 22.0363 21.8852 21.4772C22.4443 20.9181 23.2026 20.604 23.9933 20.604C24.784 20.604 25.5423 20.9181 26.1015 21.4772C26.6606 22.0363 26.9747 22.7946 26.9747 23.5853C26.9747 24.376 26.6606 25.1343 26.1015 25.6935ZM30.6267 21.8107C30.9597 20.9661 31.2533 20.1065 31.5067 19.2347C30.652 19.0253 29.76 18.856 28.8333 18.7187C29.483 19.7183 30.0816 20.7503 30.6267 21.8107ZM34.7427 26.8853C34.1827 27.1267 33.5693 27.3427 32.936 27.544C32.5373 26.1884 32.0473 24.8614 31.4693 23.572C32.0693 22.216 32.5507 20.892 32.916 19.62C33.5374 19.8124 34.1492 20.0345 34.7493 20.2853C37.0587 21.2693 38.552 22.5613 38.552 23.5853C38.5453 24.6093 37.052 25.908 34.7427 26.8853ZM31.5267 27.9293C31.28 27.0813 30.9787 26.2067 30.6267 25.3333C30.0833 26.4015 29.487 27.4419 28.84 28.4507C29.772 28.3147 30.6733 28.1387 31.5267 27.9293ZM32.232 31.236C32.5387 33.728 32.16 35.6653 31.2787 36.18C31.084 36.2973 30.8293 36.3493 30.5293 36.3493C29.1787 36.3493 27.176 35.2733 25.0493 33.3093C26.0212 32.2881 26.9216 31.2011 27.744 30.056C29.1416 29.9128 30.5275 29.6732 31.892 29.3387C32.0427 29.9973 32.1587 30.6293 32.232 31.236ZM16.4853 27.936C17.3685 28.1487 18.261 28.3204 19.16 28.4507C18.84 27.956 18.528 27.4467 18.2213 26.9253C17.9147 26.4027 17.6333 25.88 17.3653 25.36C17.0267 26.2267 16.7267 27.0947 16.4853 27.936ZM16.76 36.2053C15.8733 35.6987 15.488 33.76 15.788 31.2693C15.86 30.656 15.9773 30.0093 16.1213 29.3507C17.3987 29.664 18.7947 29.9053 20.2627 30.0627C21.0936 31.2089 22 32.2984 22.976 33.324C20.8493 35.3 18.8533 36.3827 17.496 36.3827C17.2399 36.3855 16.9871 36.3237 16.76 36.2053ZM22.2 30.2053C22.8 30.9693 23.4067 31.6667 24.0133 32.2933C24.6133 31.6667 25.22 30.9693 25.8067 30.2053C25.2133 30.2387 24.6067 30.252 23.9933 30.252C23.3867 30.252 22.7867 30.232 22.2 30.2053ZM25.7933 16.9653C25.1933 16.2013 24.5867 15.504 23.98 14.8773C23.38 15.504 22.7733 16.2013 22.1867 16.9653C22.78 16.932 23.3867 16.9187 24 16.9187C24.6067 16.9187 25.2067 16.9387 25.7933 16.9653Z" fill="#61DAFB"/>
</g>
<defs>
<clipPath id="clip0_106_521">
<rect width="32" height="32" fill="white" transform="translate(8 8)"/>
</clipPath>
</defs>
</svg>
