<svg width="48" height="48" viewBox="0 0 48 48" fill="none" xmlns="http://www.w3.org/2000/svg">
<rect width="48" height="48" rx="8" fill="#E2E6EE"/>
<path d="M12.5675 36.8012L10 8H38.212L35.6417 36.7969L24.0888 40L12.5675 36.8012Z" fill="#E44D26"/>
<path d="M24.106 37.5517L33.4414 34.963L35.6378 10.3549H24.106V37.5517Z" fill="#F16529"/>
<path d="M24.106 21.0369H19.4324L19.1096 17.4195H24.106V13.8873H15.2497L16.2023 24.5693H24.106V21.0369ZM24.106 30.2107L24.0904 30.2151L20.1571 29.1525L19.9059 26.3356H16.3601L16.8549 31.8818L24.0899 33.8905L24.106 33.8861V30.2107Z" fill="#EBEBEB"/>
<path d="M24.0937 21.0369V24.5693H28.4427L28.0329 29.1504L24.0937 30.2138V33.8889L31.3343 31.8818L32.2173 21.9855L32.3033 21.0369H24.0937ZM24.0937 13.8873V17.4195H32.6248L32.9413 13.8873H24.0937Z" fill="white"/>
</svg>
