<svg width="48" height="48" viewBox="0 0 48 48" fill="none" xmlns="http://www.w3.org/2000/svg">
<rect width="48" height="48" rx="8" fill="#E2E6EE"/>
<path d="M8 24V40H24H40V24V8H24H8V24Z" fill="#007ACC"/>
<path d="M15.0765 24.1061L15.0663 25.4166H17.1489H19.2314V31.3341V37.2515H20.7044H22.1775V31.3341V25.4166H24.26H26.3425V24.1315C26.3425 23.4204 26.3273 22.8261 26.307 22.8109C26.2917 22.7906 23.7571 22.7804 20.6841 22.7855L15.0917 22.8007L15.0765 24.1061Z" fill="white"/>
<path d="M33.821 22.7635C34.6337 22.9667 35.2534 23.3273 35.8222 23.9165C36.1169 24.2315 36.5537 24.8054 36.5892 24.9426C36.5994 24.9832 35.2076 25.9178 34.3645 26.441C34.334 26.4613 34.2121 26.3292 34.0749 26.1261C33.6635 25.5267 33.2318 25.2676 32.5715 25.2219C31.6013 25.1559 30.9765 25.6638 30.9816 26.5121C30.9816 26.761 31.0172 26.9083 31.1188 27.1115C31.3321 27.5534 31.7283 27.8175 32.9727 28.3559C35.2635 29.3413 36.2438 29.9915 36.8534 30.9159C37.534 31.947 37.6864 33.5927 37.2242 34.8169C36.7162 36.1476 35.4565 37.0518 33.6838 37.3515C33.1353 37.448 31.8349 37.4327 31.2457 37.3261C29.9607 37.0975 28.7416 36.4626 27.9899 35.6296C27.6953 35.3045 27.1213 34.4562 27.1569 34.3953C27.1721 34.375 27.3042 34.2937 27.4515 34.2073C27.5937 34.1261 28.1321 33.8162 28.64 33.5216L29.5594 32.9883L29.7524 33.2727C30.0216 33.6842 30.6108 34.248 30.9664 34.4359C31.9873 34.9743 33.3892 34.8981 34.08 34.2784C34.3746 34.0092 34.4965 33.7299 34.4965 33.3184C34.4965 32.9476 34.4508 32.7851 34.2578 32.5057C34.0089 32.1502 33.501 31.8505 32.0584 31.2257C30.4076 30.5146 29.6965 30.0727 29.0464 29.3718C28.6705 28.9654 28.3149 28.3153 28.1676 27.7718C28.0457 27.3197 28.0153 26.187 28.1118 25.7299C28.4521 24.135 29.6559 23.0226 31.393 22.6924C31.9569 22.5857 33.2673 22.6264 33.821 22.7635Z" fill="white"/>
</svg>
