<svg width="48" height="48" viewBox="0 0 48 48" fill="none" xmlns="http://www.w3.org/2000/svg">
<rect width="48" height="48" rx="8" fill="#E2E6EE"/>
<path d="M12.5683 36.8009L10 8H38.2218L35.651 36.7966L24.0938 40L12.5683 36.8009Z" fill="#1572B6"/>
<path d="M24.1111 37.5515L33.45 34.9629L35.6471 10.3547H24.1111V37.5515Z" fill="#33A9DC"/>
<path d="M24.1111 20.7893H28.7863L29.1092 17.1722H24.1111V13.6398H32.9705L32.0172 24.3217H24.1111V20.7893Z" fill="white"/>
<path d="M24.1321 29.963L24.1165 29.9676L20.1819 28.9055L19.9302 26.0882H16.3841L16.8789 31.6346L24.116 33.6427L24.1321 33.6381V29.963Z" fill="#EBEBEB"/>
<path d="M28.4859 24.1723L28.0603 28.9026L24.1198 29.9661V33.6412L31.3628 31.6343L32.0305 24.1723H28.4859Z" fill="white"/>
<path d="M24.1231 13.6398V17.1722H15.5892L15.2729 13.6398H24.1231ZM24.1111 20.7893V24.3217L20.226 24.3222L19.9941 21.7376L19.9098 20.7898L24.1111 20.7893Z" fill="#EBEBEB"/>
</svg>
