<svg width="48" height="48" viewBox="0 0 48 48" fill="none" xmlns="http://www.w3.org/2000/svg">
<rect width="48" height="48" rx="8" fill="#E2E6EE"/>
<g clip-path="url(#clip0_106_518)">
<path d="M8 8H40.2201V40.2201H8V8Z" fill="#F7DF1E"/>
<path d="M16.4719 34.9254L18.9374 33.4332C19.4132 34.2766 19.8459 34.9902 20.8839 34.9902C21.8788 34.9902 22.5062 34.601 22.5062 33.0872V22.7921H25.534V33.13C25.534 36.266 23.6957 37.6935 21.0136 37.6935C18.5915 37.6935 17.1856 36.4394 16.4719 34.9254ZM27.1786 34.6009L29.6439 33.1736C30.293 34.2334 31.1365 35.012 32.6287 35.012C33.8834 35.012 34.6834 34.3847 34.6834 33.5195C34.6834 32.4814 33.8615 32.1137 32.4773 31.5083L31.7205 31.1836C29.536 30.2539 28.0869 29.0859 28.0869 26.6203C28.0869 24.3493 29.8171 22.619 32.5207 22.619C34.4456 22.619 35.8298 23.2895 36.8246 25.0414L34.467 26.5555C33.9478 25.6255 33.3857 25.2579 32.5206 25.2579C31.6338 25.2579 31.0714 25.8202 31.0714 26.5555C31.0714 27.4638 31.6338 27.8317 32.9314 28.394L33.6883 28.7184C36.2621 29.8215 37.7112 30.9461 37.7112 33.4764C37.7112 36.2017 35.57 37.6939 32.6935 37.6939C29.8819 37.6939 28.0653 36.3529 27.1786 34.6009Z" fill="black"/>
</g>
<defs>
<clipPath id="clip0_106_518">
<rect width="32" height="32" fill="white" transform="translate(8 8)"/>
</clipPath>
</defs>
</svg>
