<svg width="123" height="49" viewBox="0 0 123 49" fill="none" xmlns="http://www.w3.org/2000/svg">
<path d="M0 9.07872V1.25827C0 0.563344 0.563346 0 1.25827 0H6.95339C7.64831 0 8.21165 0.563346 8.21165 1.25827V9.07872H0Z" fill="#A478E8"/>
<path d="M43.9311 38.1228C41.6837 38.1228 39.8618 36.3009 39.8618 34.0535C39.8618 31.8061 41.6837 29.9842 43.9311 29.9842C46.1785 29.9842 48.0004 31.8061 48.0004 34.0535C48.0004 36.3009 46.1785 38.1228 43.9311 38.1228Z" fill="#516CF7"/>
<path fill-rule="evenodd" clip-rule="evenodd" d="M12.5944 12.1885V37.1174H20.8061V23.0228C20.8061 21.7856 21.1923 20.7991 21.9648 20.0635C22.7372 19.2944 23.6944 18.9098 24.8363 18.9098C25.8775 18.9098 26.7675 19.2609 27.5064 19.9631C28.2453 20.6654 28.6147 21.6853 28.6147 23.0228V37.1174H32.6321C34.9485 37.1174 36.8264 35.2396 36.8264 32.9232V21.2673C36.8264 18.3915 35.9028 16.0842 34.0555 14.3454C32.2419 12.5731 29.9749 11.687 27.2545 11.687C24.4669 11.687 22.1831 12.5731 20.403 14.3454V12.1885H12.5944ZM0 12.1885V48.4031L3.46889 46.1864C6.42364 44.2984 8.21165 41.0339 8.21165 37.5275V12.1885H0Z" fill="url(#paint0_linear_129_195)"/>
<path d="M52.088 38V26.8H59.32V28.448H54.136V31.584H58.328V33.2H54.136V38H52.088ZM60.5325 38V30.064H62.3565L62.5485 31.552C62.8365 31.04 63.2258 30.6347 63.7165 30.336C64.2178 30.0267 64.8045 29.872 65.4765 29.872V32.032H64.9005C64.4525 32.032 64.0525 32.1013 63.7005 32.24C63.3485 32.3787 63.0712 32.6187 62.8685 32.96C62.6765 33.3013 62.5805 33.776 62.5805 34.384V38H60.5325ZM70.2236 38.192C69.4556 38.192 68.7623 38.016 68.1436 37.664C67.5356 37.312 67.0503 36.8267 66.6876 36.208C66.3356 35.5787 66.1596 34.8533 66.1596 34.032C66.1596 33.2107 66.341 32.4907 66.7036 31.872C67.0663 31.2427 67.5516 30.752 68.1596 30.4C68.7783 30.048 69.4716 29.872 70.2396 29.872C70.997 29.872 71.6796 30.048 72.2876 30.4C72.9063 30.752 73.3916 31.2427 73.7436 31.872C74.1063 32.4907 74.2876 33.2107 74.2876 34.032C74.2876 34.8533 74.1063 35.5787 73.7436 36.208C73.3916 36.8267 72.9063 37.312 72.2876 37.664C71.669 38.016 70.981 38.192 70.2236 38.192ZM70.2236 36.416C70.757 36.416 71.221 36.2187 71.6156 35.824C72.0103 35.4187 72.2076 34.8213 72.2076 34.032C72.2076 33.2427 72.0103 32.6507 71.6156 32.256C71.221 31.8507 70.7623 31.648 70.2396 31.648C69.6956 31.648 69.2263 31.8507 68.8316 32.256C68.4476 32.6507 68.2556 33.2427 68.2556 34.032C68.2556 34.8213 68.4476 35.4187 68.8316 35.824C69.2263 36.2187 69.6903 36.416 70.2236 36.416ZM75.7988 38V30.064H77.6068L77.7668 31.408C78.0121 30.9387 78.3641 30.5653 78.8228 30.288C79.2921 30.0107 79.8414 29.872 80.4708 29.872C81.4521 29.872 82.2148 30.1813 82.7588 30.8C83.3028 31.4187 83.5748 32.3253 83.5748 33.52V38H81.5268V33.712C81.5268 33.0293 81.3881 32.5067 81.1108 32.144C80.8334 31.7813 80.4014 31.6 79.8148 31.6C79.2388 31.6 78.7641 31.8027 78.3908 32.208C78.0281 32.6133 77.8468 33.1787 77.8468 33.904V38H75.7988ZM88.7491 38C87.9171 38 87.2505 37.7973 86.7491 37.392C86.2478 36.9867 85.9971 36.2667 85.9971 35.232V31.776H84.6371V30.064H85.9971L86.2371 27.936H88.0451V30.064H90.1891V31.776H88.0451V35.248C88.0451 35.632 88.1251 35.8987 88.2851 36.048C88.4558 36.1867 88.7438 36.256 89.1491 36.256H90.1411V38H88.7491ZM95.168 38V26.8H102.48V28.448H97.216V31.52H102V33.12H97.216V36.352H102.48V38H95.168ZM104.05 38V30.064H105.858L106.018 31.408C106.263 30.9387 106.615 30.5653 107.074 30.288C107.543 30.0107 108.093 29.872 108.722 29.872C109.703 29.872 110.466 30.1813 111.01 30.8C111.554 31.4187 111.826 32.3253 111.826 33.52V38H109.778V33.712C109.778 33.0293 109.639 32.5067 109.362 32.144C109.085 31.7813 108.653 31.6 108.066 31.6C107.49 31.6 107.015 31.8027 106.642 32.208C106.279 32.6133 106.098 33.1787 106.098 33.904V38H104.05ZM117.112 38.192C116.366 38.192 115.699 38.0107 115.112 37.648C114.526 37.2853 114.062 36.7893 113.72 36.16C113.379 35.5307 113.208 34.816 113.208 34.016C113.208 33.216 113.379 32.5067 113.72 31.888C114.062 31.2587 114.526 30.768 115.112 30.416C115.699 30.0533 116.366 29.872 117.112 29.872C117.71 29.872 118.232 29.984 118.68 30.208C119.128 30.432 119.491 30.7467 119.768 31.152V26.48H121.816V38H119.992L119.768 36.864C119.512 37.216 119.171 37.5253 118.744 37.792C118.328 38.0587 117.784 38.192 117.112 38.192ZM117.544 36.4C118.206 36.4 118.744 36.1813 119.16 35.744C119.587 35.296 119.8 34.7253 119.8 34.032C119.8 33.3387 119.587 32.7733 119.16 32.336C118.744 31.888 118.206 31.664 117.544 31.664C116.894 31.664 116.355 31.8827 115.928 32.32C115.502 32.7573 115.288 33.3227 115.288 34.016C115.288 34.7093 115.502 35.28 115.928 35.728C116.355 36.176 116.894 36.4 117.544 36.4Z" fill="#516CF7"/>
<defs>
<linearGradient id="paint0_linear_129_195" x1="12.5946" y1="11.687" x2="36.8265" y2="11.687" gradientUnits="userSpaceOnUse">
<stop stop-color="#A478E8"/>
<stop offset="1" stop-color="#516CF7"/>
</linearGradient>
</defs>
</svg>
