<svg width="48" height="49" viewBox="0 0 48 49" fill="none" xmlns="http://www.w3.org/2000/svg">
<path d="M-0.000244141 9.67565V1.85519C-0.000244141 1.16027 0.563101 0.596924 1.25802 0.596924H6.95314C7.64807 0.596924 8.21141 1.16027 8.21141 1.85519V9.67565H-0.000244141Z" fill="#2E2E48"/>
<path d="M43.9309 38.7196C41.6835 38.7196 39.8616 36.8978 39.8616 34.6503C39.8616 32.4029 41.6835 30.5811 43.9309 30.5811C46.1783 30.5811 48.0002 32.4029 48.0002 34.6503C48.0002 36.8978 46.1783 38.7196 43.9309 38.7196Z" fill="#2E2E48"/>
<path fill-rule="evenodd" clip-rule="evenodd" d="M12.5942 12.7855V37.7144H20.8058V23.6198C20.8058 22.3826 21.1921 21.3961 21.9645 20.6604C22.737 19.8913 23.6942 19.5068 24.8361 19.5068C25.8772 19.5068 26.7673 19.8579 27.5061 20.5601C28.245 21.2624 28.6145 22.2822 28.6145 23.6198V37.7144H32.6319C34.9483 37.7144 36.8261 35.8366 36.8261 33.5202V21.8643C36.8261 18.9885 35.9025 16.6812 34.0553 14.9424C32.2417 13.1701 29.9747 12.2839 27.2542 12.2839C24.4666 12.2839 22.1828 13.1701 20.4028 14.9424V12.7855H12.5942ZM-0.000244141 12.7855V49.0001L3.46865 46.7834C6.4234 44.8954 8.21141 41.6309 8.21141 38.1245V12.7855H-0.000244141Z" fill="#2E2E48"/>
</svg>
