<svg width="96" height="96" viewBox="0 0 96 96" fill="none" xmlns="http://www.w3.org/2000/svg">
<path d="M0.538574 18.1265V2.73084C0.538574 1.32889 1.67508 0.192383 3.07704 0.192383H14.2214C15.6233 0.192383 16.7598 1.32889 16.7598 2.73084V18.1265H0.538574Z" fill="#A478E8"/>
<path d="M87.3192 75.5C82.8797 75.5 79.2808 71.9011 79.2808 67.4616C79.2808 63.022 82.8797 59.4231 87.3192 59.4231C91.7587 59.4231 95.3577 63.022 95.3577 67.4616C95.3577 71.9011 91.7587 75.5 87.3192 75.5Z" fill="#516CF7"/>
<path fill-rule="evenodd" clip-rule="evenodd" d="M25.4179 24.2696V73.514H41.6392V45.6716C41.6392 43.2276 42.4021 41.2789 43.9281 39.8257C45.454 38.3064 47.3448 37.5468 49.6005 37.5468C51.6572 37.5468 53.4153 38.2404 54.8749 39.6276C56.3345 41.0147 57.0643 43.0294 57.0643 45.6716V73.514H64.824C69.4972 73.514 73.2856 69.7257 73.2856 65.0525V42.2037C73.2856 36.5229 71.4611 31.9651 67.8121 28.5302C64.2295 25.0293 59.7513 23.2788 54.3773 23.2788C48.8707 23.2788 44.3593 25.0293 40.843 28.5302V24.2696H25.4179ZM0.538574 24.2696V95.8077L7.19167 91.5564C13.1527 87.7473 16.7598 81.1616 16.7598 74.0875V24.2696H0.538574Z" fill="url(#paint0_linear_129_233)"/>
<defs>
<linearGradient id="paint0_linear_129_233" x1="25.4179" y1="23.2788" x2="73.2856" y2="23.2788" gradientUnits="userSpaceOnUse">
<stop stop-color="#A478E8"/>
<stop offset="1" stop-color="#516CF7"/>
</linearGradient>
</defs>
</svg>
