<svg width="55" height="63" viewBox="0 0 55 63" fill="none" xmlns="http://www.w3.org/2000/svg">
<path d="M5.39521 56.046L0.470459 0.819H54.5869L49.6572 56.0377L27.4958 62.1803L5.39521 56.046Z" fill="#1572B6"/>
<path d="M27.5292 57.4853L45.4368 52.5214L49.6499 5.33428H27.5292V57.4853Z" fill="#33A9DC"/>
<path d="M27.5292 25.3431H36.494L37.1132 18.4071H27.5292V11.6336H44.5174L42.6894 32.1165H27.5292V25.3431Z" fill="white"/>
<path d="M27.5693 42.934L27.5394 42.9429L19.9946 40.9061L19.5121 35.5039H12.7123L13.6611 46.1393L27.5385 49.99L27.5693 49.9812V42.934Z" fill="#EBEBEB"/>
<path d="M35.918 31.83L35.1019 40.9007L27.5458 42.9399V49.9871L41.4344 46.1388L42.7149 31.83H35.918Z" fill="white"/>
<path d="M27.5522 11.6336V18.4071H11.1879L10.5815 11.6336H27.5522ZM27.5292 25.3431V32.1165L20.0793 32.1175L19.6346 27.1614L19.4729 25.344L27.5292 25.3431Z" fill="#EBEBEB"/>
</svg>
