<svg width="55" height="63" viewBox="0 0 55 63" fill="none" xmlns="http://www.w3.org/2000/svg">
<path d="M4.925 56.055L0 0.808411H54.1164L49.186 56.0466L27.0252 62.1909L4.925 56.055Z" fill="#E44D26"/>
<path d="M27.0582 57.4946L44.9654 52.529L49.1786 5.32552H27.0582V57.4946Z" fill="#F16529"/>
<path d="M27.0582 25.8157H18.0933L17.474 18.8769H27.0582V12.1014H10.07L11.8973 32.5917H27.0582V25.8157ZM27.0582 43.413L27.0282 43.4214L19.4834 41.3832L19.0015 35.9799H12.2L13.1491 46.6186L27.0272 50.4715L27.0582 50.4632V43.413Z" fill="#EBEBEB"/>
<path d="M27.0346 25.8157V32.5917H35.3768L34.5907 41.3792L27.0346 43.4189V50.4686L40.9235 46.6186L42.6173 27.6354L42.7822 25.8157H27.0346ZM27.0346 12.1014V18.8769H43.399L44.006 12.1014H27.0346Z" fill="white"/>
</svg>
