<svg width="64" height="63" viewBox="0 0 64 63" fill="none" xmlns="http://www.w3.org/2000/svg">
<path d="M0.940796 0H63.9401V62.9993H0.940796V0Z" fill="#F7DF1E"/>
<path d="M17.5057 52.6467L22.3266 49.7291C23.2568 51.3781 24.1029 52.7735 26.1324 52.7735C28.0777 52.7735 29.3045 52.0126 29.3045 49.0526V28.9228H35.2247V49.1363C35.2247 55.2681 31.6303 58.0593 26.3861 58.0593C21.6501 58.0593 18.9013 55.607 17.5057 52.6467ZM38.4404 52.0123L43.2608 49.2214C44.5299 51.2937 46.1792 52.8161 49.0969 52.8161C51.5502 52.8161 53.1143 51.5895 53.1143 49.8979C53.1143 47.8681 51.5073 47.1491 48.8008 45.9654L47.3211 45.3305C43.0497 43.5126 40.2164 41.2289 40.2164 36.4079C40.2164 31.9675 43.5994 28.5842 48.8857 28.5842C52.6494 28.5842 55.3559 29.8954 57.3011 33.3207L52.6913 36.2812C51.6762 34.4628 50.5771 33.744 48.8855 33.744C47.1515 33.744 46.052 34.8435 46.052 36.2812C46.052 38.0572 47.1515 38.7766 49.6887 39.8761L51.1687 40.5103C56.2013 42.6673 59.0345 44.8661 59.0345 49.8135C59.0345 55.1424 54.848 58.06 49.2236 58.06C43.7262 58.06 40.1741 55.4379 38.4404 52.0123Z" fill="black"/>
</svg>
