<svg width="48" height="48" viewBox="0 0 48 48" fill="none" xmlns="http://www.w3.org/2000/svg">
<path d="M0 8.86739V0H8.02051V8.86739H0Z" fill="#F2F2F2"/>
<path d="M39.9795 36.4249V27.5575H48V36.4249H39.9795Z" fill="#F2F2F2"/>
<path d="M0 47.2764V11.9048H8.02051V45.2188L0 47.2764Z" fill="#0ABF04"/>
<path d="M12.3014 36.2534V11.9049H19.9283V14.0115C21.6668 12.2805 23.8975 11.4149 26.6202 11.4149C29.2773 11.4149 31.4916 12.2805 33.263 14.0115C35.0672 15.7098 35.9693 17.9634 35.9693 20.7723V36.2534H27.9488V22.4869C27.9488 21.1805 27.5879 20.1844 26.8662 19.4985C26.1446 18.8126 25.2753 18.4697 24.2583 18.4697C23.143 18.4697 22.2081 18.8453 21.4536 19.5965C20.6991 20.315 20.3219 21.2785 20.3219 22.4869V36.2534H12.3014Z" fill="#0ABF04"/>
</svg>
