<svg width="63" height="63" viewBox="0 0 63 63" fill="none" xmlns="http://www.w3.org/2000/svg">
<path d="M31.5003 59.0618C30.7566 59.0621 30.026 58.8666 29.3819 58.4948L22.641 54.5042C21.635 53.9412 22.1252 53.7423 22.4579 53.6262C23.5278 53.2956 24.5523 52.8327 25.5075 52.2481C25.5874 52.2111 25.6755 52.1951 25.7633 52.2017C25.8512 52.2082 25.9359 52.2371 26.0095 52.2855L31.1892 55.3626C31.2856 55.4136 31.3931 55.4403 31.5022 55.4403C31.6113 55.4403 31.7188 55.4136 31.8153 55.3626L52.0144 43.7038C52.1089 43.6472 52.1871 43.5669 52.2413 43.471C52.2955 43.3751 52.3238 43.2667 52.3235 43.1565V19.8349C52.3236 19.723 52.2948 19.6129 52.24 19.5154C52.1851 19.4178 52.1061 19.3359 52.0105 19.2778L31.8113 7.62882C31.7161 7.57518 31.6086 7.547 31.4993 7.547C31.39 7.547 31.2825 7.57518 31.1872 7.62882L10.9999 19.2817C10.9036 19.3387 10.8236 19.4195 10.7678 19.5164C10.7119 19.6134 10.682 19.7231 10.681 19.8349V43.1466C10.6812 43.2566 10.7107 43.3645 10.7664 43.4593C10.8221 43.554 10.902 43.6323 10.9979 43.6861L16.5379 46.8833C19.5402 48.3835 21.379 46.6155 21.379 44.8397V21.8234C21.379 21.6667 21.4413 21.5165 21.552 21.4057C21.6628 21.295 21.813 21.2327 21.9696 21.2327H24.529C24.6856 21.2327 24.8359 21.295 24.9466 21.4057C25.0574 21.5165 25.1196 21.6667 25.1196 21.8234V44.8417C25.1196 48.8481 22.9383 51.1416 19.1386 51.1416C17.4994 51.1702 15.8859 50.7318 14.4865 49.8777L9.17685 46.8321C8.53227 46.4567 7.99742 45.9188 7.62571 45.2722C7.25399 44.6255 7.05842 43.8926 7.0585 43.1466V19.8349C7.05658 19.0879 7.25133 18.3534 7.62318 17.7055C7.99502 17.0575 8.53086 16.5188 9.17685 16.1436L29.378 4.48082C30.0287 4.12481 30.7585 3.93822 31.5003 3.93822C32.242 3.93822 32.9718 4.12481 33.6225 4.48082L53.8217 16.1436C54.4662 16.5182 55.0012 17.0553 55.3732 17.7013C55.7453 18.3473 55.9414 19.0796 55.942 19.8251V43.1466C55.9409 43.8926 55.7446 44.6252 55.3727 45.2717C55.0007 45.9183 54.466 46.4562 53.8217 46.8321L33.6225 58.4948C32.9773 58.8671 32.2452 59.0627 31.5003 59.0618Z" fill="#83CD29"/>
<path d="M27.6691 35.3446C27.6691 35.1879 27.7313 35.0377 27.8421 34.9269C27.9529 34.8162 28.1031 34.754 28.2597 34.754H30.8722C31.0118 34.7544 31.1467 34.8043 31.2531 34.8947C31.3594 34.9852 31.4302 35.1104 31.453 35.2481C31.8468 37.9079 33.028 39.2486 38.3692 39.2486C42.6236 39.2486 44.4368 38.2859 44.4368 36.0277C44.4368 34.7264 43.9229 33.7598 37.31 33.112C31.7818 32.5647 28.3641 31.3402 28.3641 26.9224C28.3641 22.8471 31.7995 20.4157 37.558 20.4157C44.0292 20.4157 47.2324 22.662 47.6379 27.4815C47.6441 27.5619 47.6338 27.6428 47.6075 27.7191C47.5812 27.7954 47.5396 27.8655 47.4852 27.9251C47.4307 27.9847 47.3647 28.0325 47.2911 28.0656C47.2174 28.0986 47.1378 28.1163 47.0571 28.1174H44.4269C44.295 28.1155 44.1674 28.0695 44.0647 27.9868C43.9619 27.904 43.8898 27.7892 43.8599 27.6606C43.2319 24.8631 41.6943 23.9693 37.56 23.9693C32.9138 23.9693 32.3744 25.5876 32.3744 26.8003C32.3744 28.269 33.0122 28.6981 39.2846 29.527C45.492 30.3479 48.4412 31.5095 48.4412 35.8722C48.4412 40.2743 44.7715 42.7942 38.3711 42.7942C29.5217 42.8061 27.6691 38.7485 27.6691 35.3446Z" fill="#83CD29"/>
</svg>
