<svg width="64" height="57" viewBox="0 0 64 57" fill="none" xmlns="http://www.w3.org/2000/svg">
<path d="M63.6466 28.6833C63.6466 24.5096 58.4203 20.5537 50.4063 18.102C52.2569 9.93574 51.4353 3.43631 47.8128 1.35471C46.9351 0.863108 45.9416 0.615657 44.9358 0.638095V3.49931C45.5265 3.49931 46.0016 3.61744 46.4006 3.83531C48.1462 4.83805 48.9048 8.64951 48.3142 13.5556C48.1724 14.7631 47.9414 16.0335 47.6579 17.3303C44.9743 16.6836 42.2505 16.2162 39.5048 15.9312C37.869 13.6745 36.0845 11.5295 34.163 9.5105C38.3498 5.62029 42.2636 3.49931 44.9358 3.49931V0.638095C41.4026 0.638095 36.7958 3.14232 32.1207 7.50764C27.4483 3.17119 22.8231 0.677469 19.2925 0.677469V3.53869C21.9516 3.53869 25.8943 5.65966 30.0811 9.52362C28.283 11.4136 26.4849 13.5556 24.7761 15.9312C22.0247 16.213 19.2961 16.6849 16.6098 17.3434C16.3259 16.1144 16.1025 14.8721 15.9404 13.6212C15.3367 8.71251 16.0822 4.90105 17.8173 3.88781C18.2005 3.65681 18.7019 3.53869 19.2925 3.53869V0.677469C18.2163 0.677469 17.2372 0.921592 16.3919 1.40721C12.7826 3.48881 11.9741 9.97249 13.8352 18.1152C5.84741 20.5826 0.647339 24.5227 0.647339 28.6833C0.647339 32.857 5.87366 36.8128 13.8877 39.2619C12.0371 47.4308 12.8587 53.9303 16.4812 56.0092C17.3159 56.4975 18.2924 56.7285 19.3686 56.7285C22.9018 56.7285 27.5244 54.2111 32.1995 49.8458C36.8719 54.1849 41.4945 56.676 45.0277 56.676C46.0412 56.6974 47.0422 56.4492 47.9283 55.9567C51.5376 53.8778 52.3461 47.3941 50.485 39.2514C58.4466 36.7997 63.6466 32.8439 63.6466 28.6833ZM46.9256 20.118C46.4268 21.8344 45.8487 23.5267 45.1931 25.1894C44.1199 23.102 42.9415 21.0702 41.6625 19.1021C43.4869 19.3725 45.243 19.7059 46.9256 20.118ZM41.0456 33.7941C40.0842 35.4727 39.0516 37.1095 37.9508 38.7002C34.098 39.0398 30.223 39.0441 26.3694 38.7133C24.1591 35.5559 22.226 32.2133 20.5919 28.7227C22.2235 25.2238 24.1484 21.8694 26.3458 18.6953C30.1977 18.355 34.0718 18.3497 37.9245 18.6795C38.9903 20.2073 40.0324 21.84 41.0325 23.562C42.009 25.2419 42.8962 26.9482 43.7047 28.6702C42.8873 30.413 42.0002 32.1224 41.0456 33.7941ZM45.1931 32.1246C45.8861 33.844 46.4793 35.566 46.965 37.2354C45.285 37.6476 43.5105 37.9941 41.6756 38.2618C42.9494 36.2758 44.1233 34.2275 45.1931 32.1246ZM32.1732 45.827C30.9789 44.5932 29.7845 43.2204 28.6033 41.7163C29.7583 41.7688 30.9395 41.8081 32.1339 41.8081C33.3414 41.8081 34.5357 41.7819 35.7038 41.7163C34.5488 43.2204 33.3545 44.5932 32.1732 45.827ZM22.6183 38.2618C20.8484 38.0054 19.0913 37.6672 17.3527 37.2486C17.8278 35.5922 18.4184 33.8834 19.0851 32.1771C19.6128 33.2009 20.1666 34.2298 20.7704 35.2588C21.3741 36.2852 21.9883 37.2879 22.6183 38.2618ZM32.1076 11.5396C33.302 12.7733 34.4963 14.1462 35.6776 15.6503C34.5226 15.5978 33.3414 15.5584 32.147 15.5584C30.9395 15.5584 29.7451 15.5847 28.577 15.6503C29.732 14.1462 30.9264 12.7733 32.1076 11.5396ZM22.6052 19.1048C21.3318 21.0864 20.1578 23.1303 19.0878 25.2288C18.4137 23.5553 17.8224 21.8496 17.3159 20.118C18.9959 19.719 20.7704 19.3725 22.6052 19.1048ZM10.9845 35.1801C6.43802 33.2429 3.49806 30.6993 3.49806 28.6833C3.49806 26.6673 6.43802 24.1106 10.9845 22.1865C12.087 21.7114 13.2944 21.2861 14.5413 20.8897C15.2737 23.4045 16.237 26.0242 17.4288 28.7095C16.3036 31.2352 15.3521 33.8347 14.5807 36.4899C13.3613 36.1124 12.1611 35.6752 10.9845 35.1801ZM17.8934 53.5286C16.1478 52.5311 15.3892 48.7144 15.9798 43.811C16.1215 42.6035 16.3525 41.3304 16.636 40.0337C19.1508 40.6505 21.8991 41.1256 24.7892 41.4354C26.425 43.692 28.2096 45.837 30.131 47.8561C25.9442 51.7463 22.0146 53.8778 19.3424 53.8778C18.8382 53.8833 18.3405 53.7616 17.8934 53.5286ZM48.3536 43.7454C48.9573 48.6514 48.2118 52.4655 46.4767 53.4788C46.0935 53.7098 45.5921 53.8121 45.0015 53.8121C42.3424 53.8121 38.3997 51.6938 34.2128 47.8272C36.1263 45.8166 37.8988 43.6766 39.5179 41.4223C42.2693 41.1404 44.9979 40.6686 47.6842 40.01C47.9808 41.3068 48.2092 42.551 48.3536 43.7454ZM53.2964 35.1801C52.1939 35.6552 50.9864 36.0805 49.7395 36.4768C48.9546 33.8081 47.9899 31.1955 46.8521 28.657C48.0333 25.9874 48.9809 23.3808 49.7002 20.8766C50.9235 21.2554 52.128 21.6926 53.3095 22.1865C57.856 24.1237 60.7959 26.6673 60.7959 28.6833C60.7828 30.6993 57.8428 33.256 53.2964 35.1801Z" fill="#61DAFB"/>
<path d="M32.1339 34.5527C33.6905 34.5527 35.1834 33.9343 36.2842 32.8336C37.3849 31.7329 38.0033 30.24 38.0033 28.6833C38.0033 27.1266 37.3849 25.6337 36.2842 24.533C35.1834 23.4322 33.6905 22.8138 32.1339 22.8138C30.5772 22.8138 29.0843 23.4322 27.9835 24.533C26.8828 25.6337 26.2644 27.1266 26.2644 28.6833C26.2644 30.24 26.8828 31.7329 27.9835 32.8336C29.0843 33.9343 30.5772 34.5527 32.1339 34.5527Z" fill="#61DAFB"/>
<path fill-rule="evenodd" clip-rule="evenodd" d="M0.647339 28.6833C0.647339 24.5227 5.84741 20.5826 13.8352 18.1152C11.9741 9.97249 12.7826 3.48881 16.3919 1.40721C17.2372 0.921592 18.2163 0.677469 19.2925 0.677469C22.8231 0.677469 27.4483 3.17119 32.1207 7.50764C36.7958 3.14232 41.4026 0.638095 44.9358 0.638095C45.9416 0.615657 46.9351 0.863108 47.8128 1.35471C51.4353 3.43631 52.2569 9.93574 50.4063 18.102C58.4203 20.5537 63.6466 24.5096 63.6466 28.6833C63.6466 32.8439 58.4466 36.7997 50.485 39.2514C52.3461 47.3941 51.5376 53.8778 47.9283 55.9567C47.0422 56.4492 46.0412 56.6974 45.0277 56.676C41.4945 56.676 36.8719 54.1849 32.1995 49.8458C27.5244 54.2111 22.9018 56.7285 19.3686 56.7285C18.2924 56.7285 17.3159 56.4975 16.4812 56.0092C12.8587 53.9303 12.0371 47.4308 13.8877 39.2619C5.87366 36.8128 0.647339 32.857 0.647339 28.6833ZM46.4006 3.83531C46.0016 3.61744 45.5265 3.49931 44.9358 3.49931C42.2636 3.49931 38.3498 5.62029 34.163 9.5105C36.0845 11.5295 37.869 13.6745 39.5048 15.9312C42.2505 16.2162 44.9743 16.6836 47.6579 17.3303C47.9414 16.0335 48.1724 14.7631 48.3142 13.5556C48.9048 8.64951 48.1462 4.83805 46.4006 3.83531ZM19.2925 3.53869C21.9516 3.53869 25.8943 5.65966 30.0811 9.52362C28.283 11.4136 26.4849 13.5556 24.7761 15.9312C22.0247 16.213 19.2961 16.6849 16.6098 17.3434C16.3259 16.1144 16.1025 14.8721 15.9404 13.6212C15.3367 8.71251 16.0822 4.90105 17.8173 3.88781C18.2005 3.65681 18.7019 3.53869 19.2925 3.53869ZM10.9845 35.1801C6.43802 33.2429 3.49806 30.6993 3.49806 28.6833C3.49806 26.6673 6.43802 24.1106 10.9845 22.1865C12.087 21.7114 13.2944 21.2861 14.5413 20.8897C15.2737 23.4045 16.237 26.0242 17.4288 28.7095C16.3036 31.2352 15.3521 33.8347 14.5807 36.4899C13.3613 36.1124 12.1611 35.6752 10.9845 35.1801ZM19.0878 25.2288C20.1578 23.1303 21.3318 21.0864 22.6052 19.1048C20.7704 19.3725 18.9959 19.719 17.3159 20.118C17.8224 21.8496 18.4137 23.5553 19.0878 25.2288ZM41.0456 33.7941C40.0842 35.4727 39.0516 37.1095 37.9508 38.7002C34.098 39.0398 30.223 39.0441 26.3694 38.7133C24.1591 35.5559 22.226 32.2133 20.5919 28.7227C22.2235 25.2238 24.1484 21.8694 26.3458 18.6953C30.1977 18.355 34.0718 18.3497 37.9245 18.6795C38.9903 20.2073 40.0324 21.84 41.0325 23.562C42.009 25.2419 42.8962 26.9482 43.7047 28.6702C42.8873 30.413 42.0002 32.1224 41.0456 33.7941ZM36.2842 32.8336C35.1834 33.9343 33.6905 34.5527 32.1339 34.5527C30.5772 34.5527 29.0843 33.9343 27.9835 32.8336C26.8828 31.7329 26.2644 30.24 26.2644 28.6833C26.2644 27.1266 26.8828 25.6337 27.9835 24.533C29.0843 23.4322 30.5772 22.8138 32.1339 22.8138C33.6905 22.8138 35.1834 23.4322 36.2842 24.533C37.3849 25.6337 38.0033 27.1266 38.0033 28.6833C38.0033 30.24 37.3849 31.7329 36.2842 32.8336ZM45.1931 25.1894C45.8487 23.5267 46.4268 21.8344 46.9256 20.118C45.243 19.7059 43.4869 19.3725 41.6625 19.1021C42.9415 21.0702 44.1199 23.102 45.1931 25.1894ZM53.2964 35.1801C52.1939 35.6552 50.9864 36.0805 49.7395 36.4768C48.9546 33.8081 47.9899 31.1955 46.8521 28.657C48.0333 25.9874 48.9809 23.3808 49.7002 20.8766C50.9235 21.2554 52.128 21.6926 53.3095 22.1865C57.856 24.1237 60.7959 26.6673 60.7959 28.6833C60.7828 30.6993 57.8428 33.256 53.2964 35.1801ZM46.965 37.2354C46.4793 35.566 45.8861 33.844 45.1931 32.1246C44.1233 34.2275 42.9494 36.2758 41.6756 38.2618C43.5105 37.9941 45.285 37.6476 46.965 37.2354ZM48.3536 43.7454C48.9573 48.6514 48.2118 52.4655 46.4767 53.4788C46.0935 53.7098 45.5921 53.8121 45.0015 53.8121C42.3424 53.8121 38.3997 51.6938 34.2128 47.8272C36.1263 45.8166 37.8988 43.6766 39.5179 41.4223C42.2693 41.1404 44.9979 40.6686 47.6842 40.01C47.9808 41.3068 48.2092 42.551 48.3536 43.7454ZM17.3527 37.2486C19.0913 37.6672 20.8484 38.0054 22.6183 38.2618C21.9883 37.2879 21.3741 36.2852 20.7704 35.2588C20.1666 34.2298 19.6128 33.2009 19.0851 32.1771C18.4184 33.8834 17.8278 35.5922 17.3527 37.2486ZM17.8934 53.5286C16.1478 52.5311 15.3892 48.7144 15.9798 43.811C16.1215 42.6035 16.3525 41.3304 16.636 40.0337C19.1508 40.6505 21.8991 41.1256 24.7892 41.4354C26.425 43.692 28.2096 45.837 30.131 47.8561C25.9442 51.7463 22.0146 53.8778 19.3424 53.8778C18.8382 53.8833 18.3405 53.7616 17.8934 53.5286ZM28.6033 41.7163C29.7845 43.2204 30.9789 44.5932 32.1732 45.827C33.3545 44.5932 34.5488 43.2204 35.7038 41.7163C34.5357 41.7819 33.3414 41.8081 32.1339 41.8081C30.9395 41.8081 29.7583 41.7688 28.6033 41.7163ZM35.6776 15.6503C34.4963 14.1462 33.302 12.7733 32.1076 11.5396C30.9264 12.7733 29.732 14.1462 28.577 15.6503C29.7451 15.5847 30.9395 15.5584 32.147 15.5584C33.3414 15.5584 34.5226 15.5978 35.6776 15.6503Z" fill="#61DAFB"/>
</svg>
