<svg width="64" height="63" viewBox="0 0 64 63" fill="none" xmlns="http://www.w3.org/2000/svg">
<path d="M0.294067 62.9993H63.2934V0H0.294067V62.9993Z" fill="#007ACC"/>
<path d="M14.2258 31.7088L14.2058 34.2886H22.4056V57.5885H28.2055V34.2886H36.4055V31.7588C36.4055 30.3585 36.3754 29.1886 36.3356 29.1586C36.3055 29.1187 31.3153 29.0985 25.2657 29.1086L14.2555 29.1387L14.2258 31.7088ZM51.1284 29.0653C52.7282 29.4652 53.9483 30.1752 55.0683 31.3353C55.6483 31.9554 56.5081 33.0852 56.5783 33.3552C56.598 33.4352 53.8582 35.2752 52.1984 36.3053C52.1383 36.3452 51.8981 36.0853 51.6282 35.6852C50.8183 34.5052 49.9683 33.9953 48.6682 33.9052C46.7585 33.7752 45.5283 34.7751 45.5384 36.4451C45.5384 36.9353 45.6083 37.2252 45.8084 37.6251C46.2284 38.4953 47.0083 39.0153 49.4584 40.0752C53.9682 42.0151 55.8981 43.295 57.0983 45.1151C58.4382 47.1451 58.7382 50.3852 57.8282 52.7951C56.8283 55.415 54.3484 57.195 50.8581 57.7849C49.7783 57.9749 47.2185 57.9448 46.0584 57.7349C43.5286 57.2851 41.1284 56.0349 39.6484 54.395C39.0684 53.7551 37.9384 52.0849 38.0085 51.9651C38.0385 51.925 38.2984 51.765 38.5883 51.595C38.8683 51.435 39.9285 50.8249 40.9284 50.2451L42.7384 49.1951L43.1183 49.7552C43.6484 50.5648 44.8082 51.6749 45.5084 52.045C47.5182 53.105 50.2784 52.9551 51.6383 51.735C52.2183 51.2051 52.4582 50.6551 52.4582 49.845C52.4582 49.1151 52.3682 48.7952 51.9882 48.2452C51.4985 47.545 50.4984 46.9552 47.6582 45.7252C44.4083 44.3249 43.0083 43.4552 41.7284 42.0752C40.9884 41.2754 40.2883 39.9952 39.9984 38.9252C39.7584 38.0351 39.6982 35.8053 39.8884 34.9053C40.5585 31.7652 42.9284 29.5752 46.3483 28.9253C47.4581 28.7154 50.0382 28.7954 51.1284 29.0653Z" fill="white"/>
</svg>
